<svg width="91" height="111" viewBox="0 0 91 111" fill="none" xmlns="http://www.w3.org/2000/svg">
<path d="M46.4985 66.147C46.5033 66.2714 46.4938 66.3957 46.4842 66.5176C46.4664 66.6645 46.4378 66.8136 46.4056 66.9522L46.3032 67.1925C46.252 67.2849 46.1961 67.3678 46.1306 67.4471C46.0425 67.5242 45.9458 67.591 45.8424 67.646C45.7385 67.684 45.6306 67.7102 45.5209 67.7241C45.3442 67.7297 45.1677 67.7098 44.9969 67.6649C44.73 67.5849 44.47 67.484 44.2193 67.363C43.9496 67.2304 43.6697 67.1195 43.3821 67.0315L43.2511 67.2659H43.2476C41.7812 67.2161 40.3471 66.8247 39.0606 66.1234C38.0793 65.5823 37.6971 65.0696 37.7483 65.0045C37.8138 64.9074 38.3675 65.2768 39.2976 65.6249C40.405 66.0405 41.5673 66.2998 42.7498 66.3874L42.745 66.0642L43.1856 66.1103C43.6739 66.179 44.1442 66.327 44.5825 66.5543C44.7909 66.6562 45.01 66.7438 45.2327 66.8172C45.3041 66.8409 45.378 66.8503 45.4518 66.8551C45.4804 66.8551 45.4756 66.8409 45.4887 66.8551C45.4887 66.8456 45.4935 66.8551 45.503 66.8456C45.5125 66.8361 45.5173 66.8267 45.5351 66.7982L45.5399 66.7947C45.5499 66.7623 45.5639 66.7313 45.5816 66.7023C45.5959 66.623 45.6292 66.5259 45.6423 66.4478C45.6471 66.3365 45.6757 66.2027 45.6709 66.1198L45.6661 66.1151C45.6661 66.0322 45.6614 65.9434 45.6566 65.8546C45.536 65.1436 45.2056 64.4842 44.7075 63.9602C44.2931 63.4641 43.893 63.0805 43.6381 62.7987C43.3869 62.5169 43.2476 62.3452 43.2892 62.2943C43.3309 62.2481 43.5262 62.3357 43.8513 62.5346C44.3217 62.8212 44.7635 63.1551 45.1636 63.5292C45.8316 64.1047 46.2896 64.8835 46.4664 65.7445C46.4902 65.8783 46.4985 66.0133 46.4985 66.147ZM70.5522 42.4444C71.1572 42.7451 71.5156 42.989 71.4727 43.1063C71.431 43.2211 71.0083 43.1844 70.3426 43.0317H70.3379C69.4659 42.8359 68.619 42.5427 67.8133 42.1579C66.972 41.7705 66.228 41.2019 65.6352 40.4932C65.1839 39.9094 65.091 39.4986 65.1839 39.4335C65.2911 39.3506 65.5983 39.6786 66.0866 40.0574H66.0818C66.7411 40.567 67.4538 41.0045 68.2074 41.3622C69.0958 41.7967 69.9413 42.1484 70.5522 42.4444ZM81.7675 49.1968C81.7163 49.4928 81.6925 49.7935 81.7079 50.099C81.7306 50.575 81.7818 51.0509 81.8604 51.5234C81.9354 51.9259 82.0045 52.2492 82.0557 52.4706C82.0973 52.6707 82.1628 52.8222 82.1069 52.8601C82.0557 52.8968 81.9306 52.8601 81.7437 52.628C81.5297 52.3421 81.3633 52.0239 81.2507 51.6856C81.0598 51.1949 80.9349 50.6814 80.8791 50.1582C80.8279 49.8302 80.8279 49.4964 80.8791 49.1684C80.9029 48.9197 81.0137 48.6829 81.1864 48.4982C81.2244 48.4649 81.2646 48.4341 81.3066 48.4059C81.39 48.3585 81.4733 48.3183 81.5627 48.2851C81.6794 48.2579 81.7949 48.2389 81.9163 48.2342C82.2634 48.241 82.609 48.2798 82.9488 48.3502C83.2703 48.3976 83.5918 48.484 83.8895 48.619C84.4135 48.8641 84.847 49.2702 85.1209 49.7793C85.5448 50.5797 85.652 51.0936 85.5591 51.1528C85.4424 51.2226 85.1125 50.7692 84.6052 50.1345C84.3407 49.7977 83.9927 49.535 83.5954 49.372C83.3427 49.2848 83.0805 49.2276 82.8142 49.2015C82.5462 49.1588 82.2757 49.1323 82.0045 49.1222C82.0092 49.1186 82.0187 49.1186 82.0235 49.1186H81.9485L81.8187 49.1269C81.8377 49.1222 81.8508 49.1092 81.8508 49.0914C81.8604 49.076 81.8508 49.076 81.8377 49.0855C81.833 49.095 81.833 49.0997 81.8377 49.1092V49.095H81.833L81.8282 49.0997V49.1317C81.8044 49.3258 81.777 49.1921 81.7675 49.1968Z" fill="#002D5A"/>
<path d="M81.8604 49.1873H81.833C81.8509 49.1779 81.8652 49.1779 81.8604 49.1873ZM81.9116 49.1364L82.0045 49.127C81.9354 49.1412 81.8925 49.1601 81.8556 49.1684C81.8747 49.1601 81.9116 49.1506 81.9116 49.1364Z" fill="#002D5A"/>
<path d="M87.8562 55.4354C87.9777 56.1197 87.8324 57.3499 88.6981 57.595V57.5903C88.7626 57.6203 88.8333 57.6348 88.9045 57.6325C88.9757 57.6302 89.0453 57.6113 89.1078 57.5772C89.1719 57.5447 89.2272 57.4975 89.2693 57.4394C89.3113 57.3813 89.3388 57.3141 89.3495 57.2434C89.4284 56.8133 89.4424 56.3739 89.3912 55.9398C89.3638 55.2175 89.6937 53.2852 89.0375 52.8223V52.827C88.8865 52.7187 88.7049 52.6609 88.5187 52.6617C88.3326 52.6626 88.1515 52.7221 88.0015 52.8317C87.4144 53.3728 87.7395 54.7688 87.8562 55.4354ZM72.7469 62.2943C72.7835 62.2718 72.8164 62.2439 72.8445 62.2114C72.8922 62.1641 72.9469 62.1191 72.9934 62.0634C71.8946 61.7014 70.8692 61.1482 69.9651 60.4295C69.328 60.1572 68.7088 59.8375 68.1193 59.4823C68.1598 60.0376 68.1646 60.5929 68.1276 61.147C68.1931 61.1328 68.2539 61.1151 68.3229 61.1056C68.8996 60.9521 69.513 61.0177 70.0436 61.2896C70.5743 61.5614 70.984 62.0201 71.1928 62.5761C71.4632 62.6093 71.7192 62.7016 71.9466 62.8484C72.0077 62.7326 72.1057 62.6401 72.2253 62.5856C72.3706 62.5205 72.5051 62.4518 72.6397 62.3677C72.6766 62.3405 72.71 62.318 72.7469 62.2943ZM70.5462 79.0693L70.5939 79.1167C70.5843 79.093 70.6439 79.125 70.6439 79.1345V79.1392C70.6724 79.1392 70.6998 79.1439 70.7237 79.1522C70.788 79.1522 70.8487 79.1522 70.9094 79.1439C71.0023 78.8704 71.1143 78.6111 71.2024 78.3483C71.3417 77.9268 71.4262 77.4875 71.4536 77.0435C71.0488 77.4094 70.6082 77.7326 70.1378 78.0061C70.1556 78.0523 70.1735 78.0985 70.1878 78.1482C70.2354 78.3341 70.2866 78.5188 70.3509 78.6988L70.3926 78.8148L70.4212 78.8657C70.4533 78.9308 70.4903 78.9912 70.5331 79.0504C70.5367 79.0599 70.5367 79.0646 70.5462 79.0693ZM70.5462 64.1449C70.439 64.6635 70.8023 66.3922 71.4775 66.5366C71.5251 65.8428 71.4427 65.1463 71.2345 64.4824C71.1988 64.3521 71.1559 64.1355 71.0583 64.113C70.9702 64.1035 70.5462 64.1958 70.5462 64.1449ZM90.9393 55.3809C91.0322 56.7911 91.2048 58.6322 89.8092 59.0525H89.8044C90.2093 59.4278 90.4653 59.9405 90.507 60.4911C90.7452 62.5264 89.777 64.8293 88.897 66.6195C88.2373 67.9693 86.9202 70.4628 84.9994 70.0188C84.9291 70.0046 84.8744 69.9774 84.8136 69.9537C82.7201 70.2781 80.0086 70.4995 77.9616 69.5653V69.5701C77.8353 69.9726 77.6448 70.3468 77.4031 70.6889C78.0461 70.7955 78.6129 71.1744 78.9571 71.7309C79.6956 72.6852 80.275 73.7514 80.6731 74.8886C80.9756 75.9992 81.1256 77.1418 81.3566 78.2701C81.4364 78.5425 81.3566 78.8337 81.153 79.0326C80.5576 79.5003 79.9145 79.9029 79.231 80.2261C80.3194 80.9756 81.1387 81.9927 80.7481 83.1625V83.1684C80.4393 83.8912 79.9581 84.5284 79.346 85.0247C78.7339 85.5211 78.0094 85.8617 77.2352 86.0171C77.3566 86.5617 77.2911 87.1218 77.4078 87.6865C77.7329 89.2731 77.7794 90.7294 75.8538 91.0077C75.1475 91.1791 74.4037 91.109 73.7424 90.8088C72.9839 90.347 73.147 89.5229 73.0124 88.796H73.0077C72.7225 87.8985 72.646 86.9483 72.7838 86.0171C72.6692 85.9239 72.5689 85.8146 72.4861 85.6927C72.1151 85.0184 71.9704 84.2439 72.0729 83.4821C71.7124 83.3901 71.3842 83.2018 71.1238 82.9375C71.0257 82.8352 70.9427 82.7196 70.8773 82.5941C70.1747 83.0109 69.4161 82.7102 68.6814 82.5764C68.0555 82.5106 67.4487 82.3235 66.8951 82.0258C66.5462 82.9695 67.6715 86.4658 67.8478 87.0934C68.6909 90.096 69.7174 93.0418 70.807 95.9651C72.443 100.687 74.3568 105.309 76.5385 109.807C77.0029 110.71 75.6359 111.505 75.1702 110.603C72.5977 105.321 70.3787 99.8764 68.5278 94.304C67.3189 91.1993 66.3592 88.0044 65.6579 84.749C65.4209 83.8186 65.3313 82.857 65.3923 81.8991C64.6981 81.906 64.0184 81.702 63.444 81.3144C62.8696 80.9268 62.428 80.374 62.1782 79.73C61.1477 79.7767 60.1156 79.6883 59.1083 79.4672C59.0299 79.491 58.9485 79.5033 58.8665 79.5039C56.7587 79.5039 52.5861 78.7639 50.6331 80.0686C48.4979 81.4835 46.2877 82.4781 44.3014 84.1381C40.8456 87.0247 37.8078 90.405 34.1698 93.0773C34.029 93.1842 33.8534 93.2356 33.6768 93.2218C33.1516 93.6196 32.5753 93.944 31.9655 94.1832C32.8825 96.492 34.0209 98.7061 35.3797 100.789C35.9382 101.136 36.0311 102.083 35.2451 102.194C25.5327 103.531 16.0191 101.491 6.39118 100.584C6.2328 100.576 6.07918 100.557 5.92675 100.544C4.5272 100.415 3.1248 100.319 1.72072 100.256H1.71596C1.65345 100.251 1.59136 100.242 1.53019 100.229C1.43837 100.25 1.34314 100.252 1.25037 100.236C1.15759 100.219 1.06923 100.184 0.990743 100.132C0.912515 100.08 0.845466 100.013 0.793528 99.9352C0.741589 99.8574 0.705805 99.77 0.688272 99.6782C-0.590685 93.9807 0.315541 88.1152 0.259571 82.3384C0.208365 76.3947 -0.135786 70.4202 0.464395 64.4859C0.818073 60.9611 1.18128 57.2067 3.40576 54.2881C5.79576 51.1434 10.6841 50.5596 14.3543 50.6248H14.3591C14.5575 50.6256 14.7478 50.7034 14.8895 50.8416C15.0311 50.9798 15.113 51.1675 15.1176 51.3648C15.2385 51.4599 15.3304 51.5866 15.3832 51.7306C17.0944 56.3554 17.9268 61.4288 20.3609 65.7635C21.2992 67.4282 22.3043 69.0278 23.2582 70.6511V70.6475C23.3133 70.6101 23.3724 70.5787 23.4344 70.554C25.1885 69.9075 26.5091 68.3754 28.087 67.3867C29.3707 66.5816 30.7473 65.8558 31.9525 64.9359C34.0721 63.3161 35.9251 61.0594 38.4461 60.0187C44.3717 57.5725 51.0153 59.3023 57.2577 59.1543C57.2443 59.0944 57.2332 59.034 57.2244 58.9732C57.192 57.6692 57.6712 56.4038 58.5605 55.4448C58.2157 54.7154 58.1051 53.8982 58.2437 53.1041C57.9506 53.0744 57.6695 52.9725 57.4258 52.8078C57.1821 52.6431 56.9836 52.4206 56.848 52.1604C56.4121 51.165 56.131 50.1094 56.0145 49.0299C55.8526 48.1979 55.9353 47.3371 56.2526 46.5506C56.1882 46.5102 56.1304 46.4603 56.0812 46.4026C55.7317 45.9138 55.5459 45.3281 55.55 44.7284C54.687 44.6028 53.8574 44.3091 53.1088 43.8641C49.9079 41.8607 51.6846 37.8458 52.2062 34.881C51.6703 34.572 51.5548 34.0818 51.5167 33.3465C51.4893 32.9061 50.7176 32.7072 50.4616 32.4029H50.4664C50.1304 32.0501 49.9124 31.6026 49.8424 31.1218C49.7425 30.5714 49.8217 30.0036 50.0687 29.5011C50.3156 28.9986 50.7173 28.5874 51.2154 28.3275C48.9731 25.4421 48.3455 21.233 47.3071 17.8941C45.5399 12.1682 43.163 6.58086 41.1064 0.950905C40.7623 -0.00103706 42.2889 -0.408335 42.6378 0.536502C44.6194 5.96991 46.9451 11.3761 48.6515 16.903C49.759 20.4693 50.3449 25.3344 53.1172 28.0955H53.141C55.3035 25.3012 61.4482 32.3508 57.9186 33.9646C57.5554 34.1315 58.6629 36.1668 59.0154 36.3468H59.0118C59.4024 36.4901 59.8156 36.541 60.23 36.4995C60.8719 36.541 61.509 36.7304 62.1508 36.8098C62.002 32.2347 63.1464 29.4926 68.0538 28.5631C72.966 27.6384 75.4322 30.6162 76.8779 34.8384C76.9235 34.9514 76.9369 35.0748 76.9165 35.1949C76.8961 35.3151 76.8428 35.4273 76.7624 35.5192L76.729 35.5784C76.0979 36.4534 76.2825 37.461 76.1574 38.4745C76.3111 38.5668 76.4599 38.6592 76.604 38.7657C77.7242 39.5371 78.6415 40.5649 79.2786 41.7625C81.484 40.8235 85.3162 41.393 87.0095 43.2247H87.0143C87.7121 44.1956 88.0467 45.3796 87.9634 46.5731C87.9872 47.3818 88.011 48.1952 88.0384 49.0098V49.005C88.2242 49.7735 88.3075 50.5644 88.2932 51.3505C88.4802 51.2913 88.6803 51.2677 88.8756 51.2854C90.8428 51.508 90.8428 53.8382 90.9357 55.3785L90.9393 55.3809ZM88.0741 64.5522C88.6326 63.4191 88.9399 62.1842 88.9815 60.9209C88.8375 59.6954 87.1346 59.5711 85.827 59.4409C85.6841 61.0784 84.9434 63.6323 83.4787 64.4374C83.8407 65.8748 84.604 69.1592 85.7722 68.3304C86.9297 67.5075 87.5942 65.8428 88.0741 64.5522ZM86.5308 52.9892V52.9797C86.5308 52.9063 86.5308 52.8235 86.5201 52.7394H86.5153C86.4835 52.1176 86.4026 51.4992 86.2736 50.89C86.124 50.2825 85.9155 49.6908 85.6508 49.1234C85.4412 48.6925 85.2971 48.3965 85.3948 48.2994C85.4698 48.2212 85.7901 48.374 86.1759 48.7765C86.2271 48.8274 86.2784 48.9008 86.3307 48.9612L86.3248 48.966C86.2582 48.8078 86.1773 48.6561 86.0831 48.5125C85.0184 46.9579 81.952 46.6666 80.1896 46.9164C80.0586 49.2525 79.4596 51.7176 79.1107 54.1637C81.4781 54.0572 83.8502 54.3532 86.12 55.0387L86.1628 55.0518V55.0565C86.1472 54.3521 86.2701 53.6514 86.5248 52.994L86.5308 52.9892ZM86.4653 46.6856C86.4553 46.1496 86.372 45.6174 86.2176 45.1037C85.7163 43.5314 83.1155 42.7404 81.2459 42.8742V42.8695C81.8884 43.051 82.4911 43.3506 83.0226 43.7528C83.5347 44.1234 83.8086 44.4004 83.749 44.507C83.6919 44.6135 83.3013 44.5212 82.7249 44.3033H82.7297C82.0406 43.9846 81.3117 43.7592 80.5623 43.6332C80.3578 43.6188 80.1542 43.5928 79.9526 43.555C80.0872 44.1423 80.1706 44.7426 80.1991 45.3488C82.3802 45.0573 84.5965 45.53 86.4653 46.6856ZM86.3438 57.434C86.0223 56.4027 84.9994 56.366 83.8038 56.1671C82.5647 55.9639 81.3145 55.8342 80.0598 55.7787C80.0169 55.8474 79.9765 55.9125 79.9288 55.9776H79.924C82.0271 56.6111 84.1718 57.0965 86.3438 57.434ZM84.2789 58.8216C84.2789 58.7743 84.2825 58.734 84.2873 58.6878C83.6524 58.5508 83.02 58.4028 82.3903 58.2438C82.7167 58.5918 82.9322 59.0281 83.0095 59.4977C83.0452 59.7369 83.0321 59.9831 82.9666 60.214C82.9154 60.3668 82.8547 60.4544 82.7999 60.4544C82.7451 60.4544 82.6785 60.3715 82.6177 60.2176C82.556 60.0293 82.4844 59.8444 82.4034 59.6635C82.283 59.4166 82.1282 59.1878 81.9437 58.9838C81.7036 58.7354 81.4332 58.5178 81.1387 58.3362C80.8822 58.1787 80.6201 58.0306 80.3528 57.8922C80.3528 57.9573 80.3575 58.0165 80.3611 58.0769C80.3611 58.3172 80.3801 58.5576 80.4218 58.7991C80.5099 59.0241 80.6219 59.2467 80.7481 59.4598C81.1887 60.1821 81.6365 60.6119 81.5436 60.7137C81.3435 60.9493 80.4171 60.0104 80.3194 59.9133V59.9086C79.8642 59.3582 79.5799 58.688 79.5013 57.9798C79.3751 57.4529 79.0726 56.9438 78.3795 57.1569C77.827 57.3227 77.9389 57.6743 77.9711 58.1598L77.9663 58.1645C78.0032 58.6784 78.0914 59.1922 78.2223 59.6954C78.4367 60.5929 78.5986 61.1482 78.4867 61.2039C78.3712 61.2595 78.008 60.7776 77.6269 59.8943C77.3907 59.3677 77.2308 58.8104 77.1518 58.2391C76.8915 58.7006 76.5994 59.1437 76.2777 59.5652C75.9002 60.0518 75.5894 60.6486 75.2072 61.1707C76.8033 62.0314 78.5021 62.689 80.2634 63.1279C82.2045 63.4653 83.2405 62.8638 83.8455 61.0653C84.1158 60.3478 84.2646 59.5853 84.2789 58.8169V58.8216ZM77.2316 67.0623C78.7332 68.6217 81.0458 68.7981 83.1858 68.5992C82.6211 67.378 82.2053 66.0941 81.9473 64.7748C79.562 64.8897 77.4495 63.8442 75.2905 62.8875H75.2869C75.5387 64.4302 76.2113 65.8734 77.2316 67.0623ZM79.724 78.1446C79.6201 76.7634 79.2642 75.4126 78.6737 74.1581C78.3938 73.6999 77.64 72.1334 77.022 72.1974V72.2021C76.6826 72.2388 76.3432 72.3169 76.0217 72.4425C76.7458 72.9876 77.3412 73.6836 77.7662 74.4817C78.1912 75.2797 78.4355 76.1606 78.4819 77.0624C78.532 77.7581 78.3666 78.4522 78.008 79.0516C78.6225 78.829 79.1988 78.5247 79.724 78.1446ZM79.2215 82.7504C79.362 81.9832 78.1616 81.2905 77.1375 80.8785C76.9148 80.9105 76.6874 80.9377 76.454 80.9472H76.4492C76.6742 82.1661 76.6205 83.4197 76.292 84.6152C77.4781 84.453 79.0405 83.7355 79.2215 82.7504ZM78.757 46.8513V46.8572C78.8452 46.2972 78.869 45.7289 78.8166 45.1594C78.2688 39.8728 73.2077 38.4993 68.6397 38.5408C66.8487 38.555 64.8719 38.6663 63.0249 38.5278V38.523C63.3738 40.331 63.4203 42.1816 63.1738 44.0038C63.4203 44.0452 63.7323 44.1186 64.1038 44.198C65.3042 44.4436 66.5148 44.6363 67.7323 44.7758C70.5879 45.0528 72.966 45.1688 72.966 45.4329C72.966 45.659 70.5927 45.942 67.6394 45.659V45.6543C67.025 45.5851 66.4148 45.4832 65.8115 45.3488C66.1092 45.4968 66.4021 45.6638 66.6808 45.8532C66.7784 45.8946 66.8808 45.9278 66.988 45.9692C67.5977 46.2143 68.1646 46.3718 68.6861 46.566C69.2065 46.727 69.6864 46.8715 70.0866 47.0041C70.8904 47.2136 71.3977 47.4031 71.3881 47.5227C71.3798 47.6434 70.8404 47.6766 69.9651 47.615C69.5328 47.5511 69.0208 47.4765 68.4575 47.3474C68.3563 47.3155 68.2539 47.2882 68.1515 47.2551C68.3277 47.4954 68.4956 47.7452 68.6445 48.0045C70.6998 51.6489 73.0541 54.2383 77.4126 54.7984C77.4221 54.6267 77.44 54.4515 77.4543 54.2798C77.3359 54.2336 77.218 54.1862 77.1006 54.1377C76.9517 54.1045 76.841 54.0667 76.654 54.0311L76.6588 54.0347C76.4788 54.0043 76.3016 53.9595 76.1289 53.9009L76.0026 53.8642L75.9383 53.8405L75.905 53.8358L75.8919 53.831L75.8538 53.818L75.8454 53.8133L75.5835 53.6878H75.5894C74.9301 53.3791 74.3389 52.9437 73.8496 52.4067C73.4689 51.9963 73.1205 51.5573 72.8076 51.0936C72.2813 50.3359 71.9657 49.8315 72.0633 49.7474C72.161 49.6633 72.6266 50.0162 73.2911 50.6958C73.621 51.0238 73.9985 51.4358 74.4355 51.8336L74.4307 51.8289C74.8772 52.2643 75.3926 52.6239 75.9562 52.8933L76.1705 52.9999L76.3932 53.0733C76.5421 53.1242 76.7005 53.1656 76.8588 53.1976C76.9934 53.2308 77.2078 53.29 77.3709 53.3409C77.4174 53.3645 77.4638 53.3882 77.5138 53.4107C77.5138 53.406 77.5198 53.4013 77.5245 53.387C77.6174 52.4446 77.7329 51.5045 77.9151 50.5809L77.9985 50.1961H77.9889C77.9008 50.2015 77.8124 50.1999 77.7246 50.1914C77.529 50.1458 77.3431 50.066 77.1756 49.9558C76.7022 49.6312 76.2558 49.2693 75.8407 48.8736C75.5208 48.5414 75.2087 48.2019 74.9047 47.8554C74.6582 47.5511 74.4403 47.3569 74.3057 47.1852C74.1699 47.0147 74.1092 46.8939 74.1425 46.8383C74.1747 46.7874 74.3009 46.8111 74.5141 46.9034H74.5093C74.8035 47.0277 75.0774 47.1947 75.3286 47.3936C75.6501 47.6387 76.0026 47.9264 76.3658 48.2496C76.7564 48.5634 77.2173 48.9198 77.6496 49.211C77.7198 49.2584 77.7984 49.2939 77.8782 49.3271C77.8681 49.328 77.8583 49.3313 77.8496 49.3366C77.8401 49.3413 77.8353 49.3448 77.8353 49.3496L77.883 49.41L77.9151 49.4194V49.3875L77.9056 49.3591C77.9056 49.3638 77.9056 49.3543 77.8961 49.3591L77.8913 49.3685C77.9438 49.2998 77.9878 49.2251 78.0223 49.1459C78.0687 49.0453 78.1152 48.9245 78.1521 48.818C78.3105 48.3692 78.4307 47.9205 78.5379 47.5605C78.5978 47.3228 78.6693 47.0881 78.7523 46.8572L78.757 46.8513ZM75.8871 78.7651C77.0077 78.6123 77.0172 77.008 76.6445 75.8642V75.8702C76.3526 74.904 75.701 74.085 74.8225 73.5803C74.8308 73.7425 74.8344 73.9035 74.8344 74.0657C74.8499 74.0989 74.8725 74.1309 74.8868 74.1628L74.8916 74.1676C75.5404 75.5816 75.8111 77.1383 75.6775 78.6869C75.7485 78.7053 75.8172 78.7315 75.8824 78.7651H75.8871ZM76.5385 68.7934V68.7981C76.5469 68.7472 76.5659 68.6963 76.5849 68.6453C76.5468 68.6086 76.5016 68.5755 76.4635 68.534C75.1333 67.1032 74.2184 65.3404 73.8163 63.4333C73.5783 63.6427 73.3102 63.8155 73.0208 63.946C72.9326 63.9874 72.8387 64.0154 72.7421 64.0289C72.816 64.3071 72.8588 64.5854 72.9053 64.8624C73.0077 65.3751 73.0541 65.9032 73.0446 66.4253C73.5439 66.8388 73.9265 67.3743 74.1549 67.9791C74.3833 68.584 74.4496 69.2375 74.3474 69.8755C74.6034 70.1999 74.7606 70.5883 74.8035 70.9944C75.2237 70.7592 75.5929 70.4436 75.8898 70.0658C76.1868 69.688 76.4056 69.2556 76.5337 68.7934H76.5385ZM75.412 89.4898C75.924 89.4389 76.1467 89.4531 76.0407 88.8836C75.9574 88.4727 75.8585 88.056 75.8073 87.6356C75.7144 86.9229 76.0122 86.2705 75.1524 86.1556H75.1476C75.079 86.1474 75.0117 86.1303 74.9475 86.1047C74.8137 86.1674 74.6751 86.2196 74.5331 86.261C74.4782 86.3126 74.4188 86.3594 74.3557 86.4007C73.9568 86.6363 74.4676 87.9908 74.5236 88.3756C74.5713 88.7036 74.5605 89.0411 74.6034 89.3702C74.6356 89.6106 75.1738 89.5123 75.412 89.4898ZM76.0122 56.9805C73.8722 57.3037 71.5561 56.379 69.6948 55.1998C69.4794 55.8538 69.3329 56.5284 69.2577 57.2126C69.2446 58.026 69.8115 58.4416 70.4533 58.8583C70.4724 58.882 70.495 58.895 70.5188 58.9175V58.914C70.5658 58.9321 70.6099 58.9568 70.6498 58.9874C71.3962 59.6408 72.2744 60.1281 73.2256 60.4165C73.896 60.555 73.7567 60.3751 74.1378 59.815C74.8292 58.9154 75.4555 57.9682 76.0122 56.9805ZM74.8451 80.9934C74.8308 80.8276 74.8118 80.6559 74.7939 80.4795H74.7892C74.4819 80.7719 74.1104 80.9934 73.7055 81.1271C73.1982 81.2994 72.6632 81.3765 72.1277 81.3545C72.1467 81.4788 72.1789 81.609 72.2217 81.7286C72.4218 82.2425 73.4126 81.9785 73.7651 81.8908C74.3247 81.757 74.8308 81.6457 74.8451 80.9934ZM74.7046 84.3512C74.8535 83.9759 74.938 83.5828 74.9475 83.1814C74.5195 83.334 74.0764 83.4412 73.6257 83.5011C73.5662 83.8752 73.5936 84.2589 73.7007 84.6235C73.8496 85.0083 74.6213 84.5548 74.7046 84.3512ZM74.6629 37.7404C74.6528 36.9077 74.7898 36.0797 75.0678 35.2942C74.4094 35.0667 73.7112 34.9753 73.016 35.0255C73.2147 35.7609 73.1577 36.5416 72.8541 37.2407C73.4705 37.3561 74.0749 37.5233 74.6629 37.7404ZM74.5558 33.5727C74.3726 33.2627 74.1527 32.9757 73.9008 32.7178L73.7424 32.5698L73.6162 32.4869C73.53 32.421 73.4365 32.3649 73.3375 32.32C73.2506 32.2848 73.162 32.254 73.072 32.2276L72.7195 32.1803C72.2766 32.1434 71.8343 32.0988 71.3929 32.0465C71.2328 32.0333 71.0731 32.0147 70.9142 31.9908C70.7701 31.9731 70.6308 31.9826 70.5188 31.9636C70.3045 31.9494 70.1735 31.908 70.1652 31.8476C70.1556 31.7919 70.258 31.7138 70.4676 31.6262C70.7463 31.4545 71.063 31.3444 71.3881 31.2935C72.1088 31.1674 72.8498 31.2244 73.5424 31.4592C72.9865 30.791 72.216 30.3336 71.3608 30.1639C69.9495 29.8825 68.4899 29.9558 67.1142 30.377C66.4168 30.5187 65.7679 30.8367 65.23 31.3002C64.6921 31.7637 64.2833 32.3571 64.0431 33.0233C64.0669 33.0091 64.0859 32.9854 64.1086 32.9724C64.2292 32.8785 64.3676 32.8096 64.5154 32.7697C64.6633 32.7298 64.8177 32.7199 64.9695 32.7403C65.141 32.7912 65.2256 32.8564 65.2256 32.9215C65.2256 32.9854 65.1279 33.0316 64.96 33.0825V33.0778C64.7969 33.1713 64.648 33.2909 64.523 33.4342C64.1415 34.0321 63.9043 34.7096 63.8299 35.4138C63.7918 35.6364 63.7739 35.8353 63.7501 36.0473C63.737 36.1396 63.7263 36.232 63.7227 36.3196V36.3575C63.7487 36.3735 63.7767 36.3858 63.8061 36.3942C63.8537 36.3847 63.8394 36.4084 63.9323 36.4084L63.9371 36.4131C63.9502 36.4084 63.9692 36.4131 63.9883 36.4178C65.4578 35.0397 68.0729 34.4015 69.871 34.0131C71.3963 33.6014 72.98 33.4525 74.5558 33.5727ZM73.2768 79.6104C74.5939 78.8764 74.2628 77.0293 73.7984 75.6795V75.6748C73.5634 75.7666 73.3178 75.8287 73.0672 75.8595C73.1316 76.8385 73.0187 77.821 72.7338 78.7603C72.5706 79.0978 72.4361 79.4494 72.323 79.8046C72.3789 79.7359 72.5325 79.8188 72.8112 79.7502L72.8171 79.7454C72.9696 79.7123 73.128 79.6661 73.2768 79.6104ZM73.0589 74.2469C73.3804 74.1534 73.2673 73.9544 73.2304 73.5613L73.2363 73.5566C73.1728 73.1454 73.1557 72.7284 73.1851 72.3134C73.222 71.9937 73.534 70.9115 72.9577 70.8192C72.367 70.7268 71.7573 71.5213 71.4179 72.0387C71.6406 72.4934 71.8692 72.9421 72.0824 73.4003C72.2086 73.6679 72.311 74.0196 72.4551 74.3013C72.5143 74.3163 72.5758 74.3195 72.6361 74.3108C72.7802 74.3014 72.9243 74.2777 73.0648 74.241L73.0589 74.2469ZM72.6064 69.2741C72.6778 69.2646 72.7421 69.2598 72.8124 69.2504H72.8171C72.813 68.7738 72.6402 68.3139 72.3289 67.9515C72.286 67.9752 72.2455 67.9977 72.1979 68.0155C72.3146 68.437 72.4682 68.8525 72.6123 69.2705L72.6064 69.2741ZM71.6585 54.3532C71.6632 54.3532 71.6632 54.3485 71.6632 54.3437H71.668C70.9153 53.8311 70.2455 53.2074 69.6817 52.4943C68.8124 51.3103 68.0026 50.0789 67.2631 48.812C66.9455 48.2997 66.5535 47.8369 66.0996 47.4386C66.3324 48.6382 66.7767 49.7874 67.4119 50.8331C68.027 51.9488 68.9333 52.8789 70.0354 53.5256C70.5236 53.8393 71.0583 54.159 71.6168 54.4598C71.6295 54.4216 71.645 54.3844 71.6632 54.3485L71.6585 54.3532ZM71.2631 36.9909C71.5465 36.4913 71.8073 35.5618 71.3 35.2741C71.3 35.2741 71.3 35.2705 71.2905 35.2705C70.5367 35.4233 69.821 35.6257 69.2208 35.7974C68.0669 36.0662 66.9463 36.4723 65.8805 37.0004C66.1735 36.9956 66.4664 36.9956 66.7606 36.9909C67.6811 36.9814 68.6302 36.9542 69.5793 36.9637C69.5276 36.8518 69.5004 36.7304 69.4995 36.6073C69.4911 36.4131 69.5828 36.2 69.6543 36.1858C69.6813 36.1625 69.7131 36.1455 69.7475 36.1359C69.7818 36.1263 69.8179 36.1243 69.8532 36.1301C69.9794 36.1443 69.9889 36.4356 70.1187 36.4818C70.4328 36.7752 70.8382 36.9531 71.2679 36.9862L71.2631 36.9909ZM70.8023 70.3006C70.919 70.1846 71.0404 70.0697 71.1655 69.9632C71.0214 69.4872 70.8439 69.0195 70.701 68.5423V68.5483C70.5141 68.6311 70.3235 68.6998 70.1235 68.7472C70.0675 69.3427 70.3235 69.9312 70.8023 70.3006ZM69.0958 72.9279C69.2673 73.9272 70.0866 75.5872 70.9559 74.7406C70.6308 74.0243 70.2723 73.3257 69.9413 72.613H69.946C69.6687 72.7336 69.3849 72.8387 69.0958 72.9279ZM70.0485 81.2396V81.2432C70.1318 81.0537 70.1973 80.8548 70.2354 80.6559C69.8387 80.5366 69.4912 80.2933 69.2446 79.9621C68.9819 79.5812 68.7981 79.1522 68.704 78.6999C68.4813 78.7923 68.2574 78.8657 68.03 78.9403C68.0351 79.0236 68.0287 79.1073 68.0109 79.1889C67.9645 79.4163 67.6025 80.5955 67.7371 80.7163C68.0621 80.9934 68.6861 80.9803 69.0863 81.0679V81.0632C69.3971 81.165 69.7234 81.2219 70.0485 81.2396ZM68.6254 66.61C68.7581 66.8173 68.9438 66.9857 69.1635 67.098C69.3833 67.2104 69.6291 67.2626 69.8758 67.2494C69.7051 67.0072 69.5632 66.7462 69.453 66.4715C69.1196 65.6119 68.4908 63.8667 69.3602 63.1137C69.4435 63.045 69.5328 62.9834 69.6257 62.929C69.384 62.4944 68.6064 62.601 68.1967 62.7443C67.5322 62.9846 67.5882 63.4511 67.7085 64.0988C67.8347 64.9915 68.1515 65.8475 68.6254 66.61ZM69.2577 71.1981C69.2994 71.1744 69.3411 71.1661 69.3792 71.1519C68.7838 70.4533 68.4861 69.5523 68.5456 68.6359C68.3291 68.5393 68.13 68.4081 67.9562 68.2475C67.7129 68.0063 67.4946 67.7413 67.3048 67.4566C67.1785 67.5359 67.0535 67.6105 66.9177 67.6839C67.4953 68.6453 68.3372 69.6624 68.3134 70.7955C68.3051 71.0323 68.2717 71.2727 68.2158 71.5083C68.579 71.4574 68.9279 71.3555 69.2577 71.1981ZM69.7924 76.4112C69.1641 76.1276 68.6338 75.6659 68.2682 75.084C65.9937 76.1188 62.8439 75.1905 60.6897 73.7887C61.0422 75.3372 61.6946 76.8026 62.6105 78.1032C64.9684 78.1079 67.8109 77.8131 69.7924 76.4112ZM68.2396 54.4834C68.2544 54.3951 68.2859 54.3103 68.3325 54.2336C67.1631 53.3579 66.2548 52.183 65.7043 50.8343C65.3589 50.0008 64.96 49.3448 64.704 48.6688C64.4158 49.9416 64.8207 51.6158 64.8898 52.7252H64.885C65.0235 53.6299 65.3417 54.4983 65.8209 55.2796C66.3001 56.061 66.9308 56.7398 67.6763 57.2765C67.793 56.3329 67.9788 55.3999 68.2396 54.4834ZM67.6072 73.6584C67.5539 73.466 67.5164 73.2696 67.4953 73.0712C66.1497 73.4169 64.76 73.5329 63.3738 73.4133C64.7008 74.034 66.2178 74.1201 67.6072 73.6537V73.6584ZM66.6117 71.6693C66.7189 71.2857 66.732 70.8784 66.6581 70.4853C66.2648 69.6473 65.8189 68.8347 65.3232 68.0522C65.3145 68.0274 65.3049 68.0029 65.2946 67.9788C64.8738 68.4037 64.3016 68.6468 63.7019 68.6554C63.1022 68.6641 62.5231 68.4376 62.0901 68.0249C61.3186 67.2286 60.7615 66.2517 60.4706 65.1845C60.2615 67.3153 60.3319 69.4642 60.6802 71.577C62.6391 71.9322 64.6397 71.9653 66.6117 71.6693ZM66.5641 60.3845H66.5605C66.6292 60.0733 66.6081 59.7491 66.4998 59.4492C66.3604 59.227 66.184 59.03 65.9782 58.8666C65.6965 59.0835 65.3884 59.2641 65.0612 59.4042C65.0767 59.7511 65.0993 60.0885 65.0993 60.426C65.5748 60.2867 66.0786 60.2741 66.5605 60.3893L66.5641 60.3845ZM66.1782 80.425C66.2116 80.0639 66.2676 79.7028 66.3557 79.3559C65.5269 79.5039 64.6849 79.601 63.8383 79.6389C64.1 79.8944 64.4145 80.0903 64.7599 80.2132C65.1053 80.336 65.4735 80.3829 65.8389 80.3504C65.9559 80.352 66.0714 80.3774 66.1782 80.425ZM66.0068 66.4301H66.002C66.2116 66.3377 66.4069 66.2169 66.5784 66.0689C66.2703 65.2753 66.1003 64.4353 66.0758 63.5849C66.052 63.0438 66.2116 62.5122 66.5319 62.0777C65.765 61.5508 64.411 62.1475 64.648 63.1788H64.6432C64.8254 63.9508 65.0767 64.705 65.3971 65.4308C65.453 65.5468 65.7829 66.5224 66.002 66.4348L66.0068 66.4301ZM63.5775 57.5216C63.9597 57.9798 64.23 58.058 64.5742 57.9064L64.5694 57.9017C64.2077 57.4183 63.7528 57.0115 63.2312 56.705C62.7096 56.3984 62.1319 56.1982 61.5316 56.1162C61.1987 56.07 60.8597 56.094 60.5366 56.1864C60.2136 56.2787 59.9136 56.4376 59.6562 56.6525C59.3988 56.8675 59.1897 57.1338 59.0423 57.4343C58.895 57.7347 58.8128 58.0625 58.801 58.3966C59.0713 58.4522 59.3262 58.5351 59.5774 58.6452C59.7535 58.1382 60.0824 57.6975 60.5195 57.383C60.9565 57.0686 61.4804 56.8958 62.0198 56.8882C62.6105 56.8562 63.1785 57.0918 63.5739 57.5216H63.5775ZM62.8058 66.4526C63.2857 67.1239 63.718 67.2482 64.2705 66.7817H64.267C63.7697 65.9141 63.3924 64.9838 63.1452 64.0159C62.7594 64.229 62.3545 64.4137 61.9412 64.57C62.1175 65.2413 62.4057 65.8795 62.801 66.4526H62.8058ZM63.5227 59.9133C63.5141 59.7683 63.5029 59.6234 63.4893 59.4788C63.3351 59.4152 63.1884 59.3346 63.0523 59.2384C62.7367 59.0016 62.4616 58.4049 62.0198 58.457C61.7398 58.4909 61.48 58.6197 61.2844 58.8218C61.0887 59.0239 60.9691 59.2868 60.9457 59.5664C61.8204 59.465 62.7066 59.5843 63.5227 59.9133ZM63.974 55.3347C63.6145 54.6445 63.3979 53.8896 63.3369 53.1147C63.1916 50.9634 62.4902 47.9809 64.2062 46.3659C63.5166 46.1437 62.806 45.9921 62.0853 45.9136C61.9556 45.8944 61.8317 45.8466 61.723 45.7736C61.6142 45.7007 61.5232 45.6045 61.4566 45.4921C61.3886 45.3806 61.3467 45.2554 61.3339 45.1257C61.3211 44.996 61.3378 44.8651 61.3828 44.7426C60.9541 44.7521 60.517 44.7758 60.0657 44.7935V44.7983C60.1312 45.0303 60.1407 45.2707 60.0895 45.5063C60.453 45.6805 60.778 45.9248 61.0456 46.225C61.3132 46.5252 61.5181 46.8754 61.6483 47.2551C62.0615 48.374 62.6903 50.3998 62.0056 51.6122C62.5462 52.5831 62.7784 53.6878 62.6808 54.7889C63.1273 54.931 63.5596 55.1133 63.974 55.3347ZM63.1368 62.2813C63.2153 62.025 63.3343 61.7828 63.4893 61.5638C62.9734 61.3154 62.4205 61.1514 61.8519 61.0784C61.8281 61.1198 61.8103 61.1612 61.7829 61.2039C61.4202 61.7437 61.1367 62.3321 60.9409 62.9515C61.4995 63.5435 62.5224 62.5453 63.1035 62.2955L63.1368 62.2813ZM61.69 43.1655C61.8401 41.5396 61.7299 39.9003 61.3637 38.3087C60.0019 38.1059 58.733 37.5003 57.7221 36.5706C57.6992 36.8037 57.6554 37.0343 57.5911 37.2597C57.4891 37.6194 57.322 37.9576 57.0981 38.2578C56.6897 38.7811 56.3539 38.9054 56.261 38.8451C56.1538 38.7669 56.3729 38.4153 56.5491 37.9488V37.9523C56.795 37.3161 56.903 36.6355 56.8659 35.9549C56.8501 35.7308 56.8266 35.5073 56.7957 35.2847C56.5491 34.8018 56.3635 34.2903 56.2431 33.7621C55.281 33.9416 54.4058 34.4329 53.7543 35.1592C53.3735 36.6462 53.069 38.1514 52.8421 39.6691C53.4375 39.179 54.0805 39.1186 54.052 39.2985C54.0651 39.3637 54.0103 39.4418 53.8888 39.5353C53.8376 39.5898 53.7912 39.6502 53.7352 39.7011C53.6792 39.7792 53.6006 39.8444 53.5304 39.9379C53.2745 40.2341 53.0657 40.5676 52.9111 40.9266C53.0156 41.4494 53.2832 41.9262 53.676 42.2891C54.0687 42.6519 54.5666 42.8824 55.0987 42.9476C57.2803 43.2804 59.4941 43.3502 61.69 43.1655ZM61.1041 54.4598C61.1646 53.8122 61.0438 53.1607 60.7552 52.5772C60.4849 52.7074 60.2062 52.814 59.918 52.9063C59.7074 53.4305 59.6905 54.012 59.8704 54.5474C60.1598 54.4455 60.4622 54.4088 60.7683 54.4278L61.1041 54.4598ZM60.3682 51.0096C60.8016 50.6768 60.7552 49.9416 60.6063 49.2702C60.548 49.3084 60.4852 49.3394 60.4194 49.3626C60.3107 49.3992 60.2007 49.4316 60.0895 49.4597C60.2848 49.9546 60.3825 50.4779 60.3729 51.0096H60.3682ZM59.9966 47.8459C60.0478 47.8317 60.099 47.8187 60.1455 47.8092C60.0769 47.5938 59.9613 47.3961 59.807 47.2302C59.6527 47.0643 59.4634 46.9343 59.2528 46.8495C59.0422 46.7647 58.8153 46.7271 58.5884 46.7395C58.3615 46.7519 58.1401 46.8139 57.94 46.9212C57.8888 46.9449 57.8376 46.9579 57.7864 46.9721C57.5867 47.3845 57.4989 47.8416 57.5316 48.2982C57.8755 48.1833 58.2407 48.1457 58.601 48.1881C59.0749 48.1147 59.5417 47.9986 59.9966 47.8459ZM60.773 78.1399C59.7873 76.5807 59.1776 74.8159 58.9916 72.9836C58.8405 72.9686 58.6899 72.9484 58.5402 72.9232C58.3545 74.6944 58.3783 76.4515 59.5167 77.9457H59.5131C59.9264 78.0475 60.3503 78.1115 60.773 78.1399ZM59.9966 61.1056C59.7311 60.9623 59.4846 60.8001 59.2345 60.6438C58.239 62.0033 57.5545 63.5627 57.2291 65.2129C56.8774 67.186 56.8272 69.2006 57.0803 71.1886C57.7447 71.2348 58.4021 71.3496 59.0666 71.4242C58.6248 68.2238 58.4819 63.959 59.9966 61.1056ZM58.7308 51.5412C58.8583 51.0853 58.8554 50.6031 58.7224 50.1488C58.6909 50.0072 58.6099 49.8813 58.4938 49.7936C58.2732 49.82 58.0514 49.8351 57.8293 49.8386C57.9222 50.163 58.0055 50.4862 58.0758 50.8154C58.183 51.3328 58.2187 51.6288 58.7308 51.5412ZM58.4426 45.0433C58.4569 45.0386 58.4712 45.0386 58.4795 45.0339C58.4566 44.9836 58.4398 44.9307 58.4295 44.8764C58.0012 44.8857 57.5728 44.8857 57.1446 44.8764C57.1589 44.9972 57.1779 45.125 57.1958 45.2186C57.3077 45.2138 57.4197 45.1996 57.5364 45.1819V45.1771C57.8376 45.1487 58.1449 45.1025 58.4426 45.0433ZM57.3446 32.2679C57.3228 32.0903 57.2776 31.9163 57.2101 31.7505C56.9714 31.1834 56.6326 30.6633 56.2098 30.2148C55.8271 29.7462 55.3463 29.366 54.801 29.1007C54.4473 28.9468 54.3771 28.9989 54.2294 29.3268L54.2234 29.3221C54.233 29.3505 54.2377 29.3777 54.2425 29.4014C54.262 29.5646 54.2395 29.73 54.177 29.8821C54.0234 30.261 53.7257 30.5712 53.3446 30.7382C53.0469 30.8672 52.8707 30.821 52.8004 30.7287C52.7301 30.6363 52.8373 30.4422 52.9445 30.2515C53.0374 30.1095 53.1588 29.9236 53.2613 29.7483C53.2131 29.744 53.1657 29.7329 53.1207 29.7152C53.0431 29.6903 52.964 29.6705 52.8838 29.656C52.7435 29.6746 52.6008 29.6554 52.4705 29.6003C52.018 29.5719 51.5631 29.6927 51.4464 30.1971C51.2607 30.969 51.5953 31.3065 52.1728 31.7043H52.1764C52.4241 31.8795 52.642 32.0927 52.8195 32.3378C53.0743 32.0181 53.372 31.7315 53.7078 31.4912C54.308 31.0472 54.7498 30.8992 54.8153 30.9915C54.8808 31.0839 54.5819 31.4273 54.1353 31.9447C53.8746 32.237 53.638 32.5498 53.428 32.88C53.3426 33.0156 53.2708 33.1592 53.2136 33.3086C53.3494 33.2163 53.4935 33.1334 53.6423 33.0683C53.7912 33.0091 53.94 32.9617 54.0936 32.9262C54.8388 32.4215 55.7226 32.1581 56.6242 32.172C56.6932 32.172 56.7587 32.1803 56.8242 32.1992C57.0004 32.1571 57.186 32.1808 57.3446 32.2679ZM57.6376 77.8439C56.9305 76.2463 56.703 74.4794 56.9826 72.7562C56.8195 72.7467 56.6563 72.7278 56.4944 72.7278L56.4896 72.7325C56.3729 72.7325 56.2514 72.7089 56.1443 72.6591C54.5014 72.3826 52.8753 72.015 51.2738 71.558C51.1602 71.625 51.0293 71.6572 50.8974 71.6504C50.3986 71.5818 49.8914 71.6038 49.4006 71.7155V71.7249C49.8895 71.7573 50.3684 71.8777 50.8141 72.0801C51.6834 72.4827 52.1026 72.8948 52.0466 72.9918C51.9823 73.1079 51.4512 72.8947 50.6093 72.6722H50.6045C50.1401 72.5359 49.6548 72.4841 49.1719 72.5194C48.935 72.5431 48.7075 72.6177 48.4979 72.7325L48.2979 72.8758L48.1395 73.0143C48.0228 73.1256 47.9013 73.2322 47.7858 73.3388C46.8689 74.2777 46.1258 75.3042 45.4922 75.9708C44.8409 76.6599 44.3669 76.9559 44.274 76.886C44.1764 76.7937 44.5158 76.3213 44.9945 75.5907C45.5113 74.7631 46.0829 73.9686 46.7021 73.2132C45.4436 73.6546 44.2451 74.25 43.1344 74.9857C41.2844 76.3083 39.6064 77.8537 38.1388 79.5868C37.6066 80.2307 37.0885 80.886 36.5848 81.5522C36.692 81.4741 36.7991 81.3959 36.9016 81.3166C37.7732 80.6462 38.6504 79.9831 39.5333 79.3275C41.0504 78.218 42.0269 77.5799 42.1055 77.677C42.1853 77.7788 41.3481 78.5839 39.9299 79.8141C39.1037 80.5358 38.2677 81.2463 37.422 81.9453C36.6039 82.6202 35.6548 83.1897 34.8021 83.8835C34.6723 84.0552 34.5378 84.2352 34.4032 84.4069C34.5282 84.369 34.664 84.3417 34.7938 84.2956C35.3523 84.1156 35.9108 83.9522 36.4264 83.8148C37.4505 83.5508 38.3937 83.2134 39.1427 82.9778C39.3249 82.8984 39.4916 82.8298 39.65 82.7646C39.8132 82.6817 39.9668 82.6072 40.1061 82.5338C40.3895 82.3988 40.6646 82.2733 40.873 82.1868C41.3065 82.0519 41.5518 82.0104 41.5756 82.0613C41.5946 82.1122 41.3898 82.2555 40.9945 82.4828C40.7777 82.6346 40.5594 82.7842 40.3395 82.9316C40.199 83.0239 40.0597 83.1163 39.9013 83.2181C39.7429 83.3199 39.5571 83.4123 39.3761 83.5141C38.4961 83.9072 37.5946 84.2541 36.6777 84.5501C36.1525 84.7159 35.6119 84.9018 35.0451 85.0948C34.5599 85.2747 34.0581 85.4068 33.547 85.489C32.7692 86.4602 31.9417 87.3909 31.0677 88.2774C32.1634 89.1375 33.134 90.1444 33.9519 91.2694C38.1567 88.0181 41.4875 83.6751 46.0603 80.8915C46.3115 80.7388 46.5771 80.5719 46.8462 80.4061C47.9531 79.2301 48.9066 77.9202 49.684 76.5071C49.9448 75.998 50.1484 75.4652 50.3068 74.9206C50.414 74.5275 50.4699 74.2919 50.5354 74.3002C50.5819 74.3049 50.6426 74.5322 50.6283 74.9526V74.9573C50.5911 75.5698 50.456 76.1725 50.2282 76.7428C49.8982 77.5905 49.4604 78.3927 48.9254 79.1297C49.5269 78.781 50.1571 78.4839 50.8093 78.2417C51.3678 77.7788 51.8192 77.1998 52.1216 76.5439C52.405 75.9566 52.6337 75.3409 52.8004 74.7122C52.9219 74.2587 53.0052 74.0006 53.0707 74.0089C53.135 74.0184 53.1636 74.2812 53.1398 74.7667C53.0977 75.4635 52.9504 76.15 52.7028 76.8031C52.5479 77.1966 52.3498 77.5718 52.1121 77.922C53.9496 77.7326 55.7965 77.7089 57.6376 77.8439ZM57.3589 60.7314C54.1437 60.8333 50.9951 60.5645 47.7858 60.3845C44.3443 60.1903 40.5288 60.1856 37.6042 62.2896C35.1379 64.0609 33.0766 66.1648 30.4591 67.7609C28.4109 69.01 26.5925 70.8417 24.4014 71.8315C25.1278 73.6537 25.8625 75.4759 26.6949 77.2614V77.2649C27.6151 77.0243 28.4935 76.6471 29.3005 76.146C28.9009 75.7471 28.5666 75.2885 28.3097 74.7868C27.9984 74.2077 27.8248 73.5652 27.8024 72.909C27.7786 72.4508 27.9227 72.002 28.2073 71.6421C28.4109 71.41 28.5645 71.3638 28.6026 71.3875C28.6538 71.423 28.5598 71.5722 28.4621 71.822C28.3416 72.1587 28.3129 72.521 28.3788 72.8722C28.4812 73.4216 28.686 73.945 28.9837 74.4115C29.2719 74.8886 29.6387 75.3137 30.0674 75.6653C30.6032 75.3137 31.1379 74.9395 31.6869 74.5642C31.7286 74.537 31.7703 74.5133 31.8072 74.4908L31.756 74.4434H31.7512C31.3465 74.1981 31.0292 73.8329 30.8438 73.3991C30.7387 73.0481 30.6885 72.6831 30.6949 72.317C30.7117 71.82 30.7679 71.3251 30.8628 70.8369C30.9224 70.5042 30.9795 70.3136 31.0403 70.3101C31.1046 70.3053 31.1653 70.4948 31.207 70.8512C31.2487 71.2064 31.2487 71.7155 31.3189 72.2885H31.3237C31.3558 72.5987 31.4309 72.8995 31.5464 73.186C31.7238 73.4358 31.956 73.6395 32.2252 73.7828C32.3049 73.842 32.3978 73.9035 32.4955 73.9675C32.5264 73.9868 32.5544 74.0103 32.5788 74.0373C33.4589 73.5756 34.4401 73.1398 35.2868 72.6035V72.5987C35.3654 72.5206 35.4404 72.4365 35.5095 72.3501C35.5984 72.234 35.6591 72.0991 35.6869 71.9558C35.7057 71.785 35.6916 71.6122 35.6452 71.4467C35.374 70.7536 34.9659 70.1215 34.4449 69.5878C34.059 69.1438 33.7613 68.8383 33.8399 68.733C33.9102 68.6394 34.296 68.733 34.864 69.1166C35.1891 69.3427 35.4869 69.602 35.7476 69.898C36.0966 70.2769 36.3514 70.7304 36.505 71.2158C36.5241 71.3224 36.5431 71.4242 36.5562 71.5308H36.561C36.6491 71.4242 36.7277 71.3176 36.8075 71.2016C37.1475 70.6864 37.6094 70.2618 38.1527 69.9652C38.696 69.6686 39.3041 69.5089 39.9239 69.5002L39.282 69.4078C38.9105 69.338 38.5473 69.2693 38.1889 69.2042L38.0591 69.177L37.9936 69.1675H37.9805L37.9424 69.158H37.934L37.9007 69.1486C37.8173 69.1118 37.7292 69.0787 37.6446 69.0467C37.4732 68.9816 37.3053 68.9224 37.1433 68.862C36.8449 68.7388 36.557 68.5919 36.2823 68.4228C36.0377 68.2917 35.8029 68.1433 35.5797 67.9788C34.7521 67.414 34.277 67.0209 34.3377 66.9096C34.3972 66.7995 34.9891 67.0114 35.8858 67.4329C36.1097 67.5442 36.3514 67.6638 36.6122 67.7704C36.8825 67.9006 37.1612 68.0107 37.4458 68.0983C37.5934 68.1457 37.7435 68.1907 37.8959 68.2416L38.1293 68.3209L38.1567 68.3257L38.1615 68.3304L38.221 68.3387L38.352 68.3624C38.7057 68.418 39.0689 68.4831 39.4404 68.5471H39.4452C40.6837 68.8016 41.934 68.9686 43.1904 69.0325C43.4321 69.0325 43.6453 69.0325 43.8406 69.0242C43.9061 69.0195 43.9573 69.0148 44.0132 69.0148C44.1573 68.9544 44.2919 68.894 44.436 68.8206C44.5555 68.7537 44.6911 68.7206 44.8281 68.7248C44.9651 68.7289 45.0984 68.7703 45.2136 68.8443C45.2665 68.8527 45.3181 68.8678 45.3672 68.8893C46.7764 69.3764 48.2495 69.6568 49.74 69.7216C49.628 69.6671 49.5161 69.602 49.4232 69.5511V69.5464C48.9877 69.3108 48.5816 69.0251 48.2133 68.6951C47.9494 68.4654 47.7413 68.1792 47.6048 67.858C47.5119 67.5857 47.5714 67.4744 47.6179 67.4507C47.6655 67.4234 47.7667 67.5667 47.9025 67.6875L47.9073 67.6827C48.1157 67.8817 48.3479 68.0569 48.6003 68.2002C48.9862 68.4322 49.3863 68.6394 49.7912 68.8253C50.0329 68.9354 50.2925 69.0467 50.5533 69.1675C50.8093 69.3013 51.0749 69.4161 51.3488 69.5878C51.8239 69.8566 52.2276 70.1147 52.6099 70.3456C53.5465 70.615 54.4964 70.8363 55.456 71.0086L55.4524 70.9755V70.9802C55.0717 70.5879 54.6342 70.2543 54.1544 69.9904C53.5864 69.6671 52.9028 69.3984 52.1955 69.0751L51.8013 68.8893C51.6584 68.8158 51.5226 68.7365 51.3785 68.6584C51.1269 68.5008 50.8843 68.3293 50.6521 68.1445C49.4887 67.2102 48.547 66.0321 47.8942 64.6943C47.6098 64.1224 47.4438 63.4995 47.4059 62.8627C47.3916 62.6969 47.4059 62.5205 47.4476 62.3595C47.4798 62.2482 47.5036 62.1878 47.5405 62.1878C47.5774 62.1878 47.606 62.247 47.6334 62.3595C47.6619 62.4743 47.6941 62.6412 47.7548 62.8307C47.9216 63.3813 48.1597 63.9081 48.461 64.403C48.9076 65.1383 49.4482 65.8239 50.0567 66.4384C50.7688 67.203 51.6254 67.8206 52.5777 68.2558C53.2672 68.5423 53.9412 68.8715 54.5926 69.2314C54.8582 69.3936 55.1082 69.5748 55.3464 69.7725C55.2952 68.3754 55.3786 66.9794 55.5881 65.6013C55.8489 63.8726 56.4527 62.215 57.3649 60.7267L57.3589 60.7314ZM47.7072 71.0678C46.7307 70.9376 45.7721 70.6937 44.8504 70.3373C43.517 70.7764 42.1144 70.9706 40.711 70.9104C38.4782 71.0489 38.2222 72.6958 36.5753 73.6253C34.714 74.6755 32.9277 75.6618 31.1463 76.8576V76.8541C29.8977 77.7629 28.4864 78.4267 26.9879 78.81C27.9286 81.654 28.742 84.5821 29.6351 87.477C32.8444 84.3417 35.0177 80.3694 38.1662 77.1962C39.6195 75.6415 41.2671 74.2782 43.0689 73.1398C44.5527 72.266 46.1901 71.822 47.7072 71.0678ZM31.1093 101.02C31.9155 100.974 32.7204 100.908 33.5232 100.821C29.0671 93.6291 27.7405 84.9846 24.755 77.1773C22.945 72.4602 19.7404 68.5755 17.7625 63.9496C16.6409 61.0681 15.671 58.1306 14.8568 55.1488C15.0111 56.7142 15.2496 58.2703 15.5713 59.8103C16.3073 63.3351 17.2147 66.494 17.7303 68.8241C18.103 70.0591 18.3162 71.3401 18.3674 72.6307C18.2364 72.6627 17.8101 71.2478 17.1206 68.9769C16.4561 66.7107 15.4511 63.566 14.7032 59.9903V59.9867C14.1817 57.4823 13.9211 54.9311 13.9256 52.3735C13.9018 52.3226 13.8887 52.2622 13.8696 52.2078V52.2019C12.5884 52.1932 11.3095 52.3082 10.0506 52.5452C10.9143 54.3535 11.5925 56.2436 12.075 58.187C12.5395 60.0139 12.8741 61.6372 13.1718 62.9787C13.7434 65.6664 14.1959 67.2198 14.0887 67.2565H14.084C13.8686 66.9284 13.7081 66.5677 13.6088 66.1885C13.3349 65.4852 13.0277 64.4303 12.6562 63.103C12.2846 61.7757 11.8928 60.1667 11.376 58.3717V58.3764C10.8609 56.5082 10.1712 54.6919 9.31587 52.9513C8.83596 53.0579 8.38583 53.0851 7.9476 53.1455C7.4835 53.3237 7.034 53.5375 6.60315 53.7849C6.39952 54.1874 6.30544 54.6397 6.32926 55.0932C6.35665 55.6757 6.43167 56.2535 6.55671 56.8278C6.60791 57.1747 6.69723 57.5121 6.82226 57.8448C6.92683 58.1073 7.12592 58.3217 7.38076 58.4463C7.77136 58.5884 8.13933 58.7932 8.46442 59.0513C8.77642 59.3568 9.01221 59.7321 9.15273 60.143C9.38018 60.8605 9.59929 61.5638 9.82317 62.2529C9.98988 62.942 10.1626 63.6263 10.3245 64.287C10.8128 66.6467 11.12 69.042 11.2415 71.4467C11.3129 73.066 11.2819 74.6881 11.1486 76.3035C11.1247 76.9002 11.0271 77.4875 10.8651 78.0606C10.7068 78.0558 10.9437 75.5268 10.6186 71.4893H10.6139C10.4049 69.1295 10.0413 66.7857 9.52546 64.4729C9.35755 63.8253 9.18012 63.1634 9.00864 62.4885C8.78952 61.8314 8.5716 61.1612 8.34772 60.4816C8.25449 60.1884 8.09197 59.9217 7.87377 59.7037C7.60539 59.5008 7.30526 59.3432 6.98541 59.2372C6.54461 59.0207 6.19769 58.6526 6.00892 58.2012C5.85841 57.8077 5.74907 57.3998 5.68263 56.9841C5.54757 56.3647 5.46787 55.7348 5.44447 55.1015C5.44447 54.931 5.45042 54.7463 5.46828 54.5616C4.35586 55.4965 3.54801 56.739 3.14735 58.1314C2.70183 59.6373 2.37847 61.1763 2.18039 62.7336C2.59373 63.3094 2.84417 63.9848 2.90561 64.6896C2.9711 65.0969 3.02231 65.5089 3.1009 65.8925L3.69632 65.175L4.14765 64.6256L4.4132 65.3053C4.50609 65.5314 4.59421 65.754 4.67757 65.9849V65.9896C5.4278 67.8959 5.91604 69.8968 6.13039 71.9333C6.3757 73.7828 6.48764 75.4475 6.64126 76.8351C6.91038 79.5915 7.31527 81.3024 7.17118 81.3344H7.17594C6.56229 79.9307 6.17141 78.4408 6.01726 76.918C5.78981 75.5256 5.61237 73.8609 5.31943 72.0482C5.06913 70.0969 4.58046 68.1832 3.86423 66.3496C3.84994 66.3732 3.82612 66.3969 3.80826 66.4206C3.64511 66.655 3.4784 66.8824 3.31525 67.118L2.87822 67.7372L2.56622 67.0623V67.0576C2.284 66.3385 2.11451 65.5806 2.06369 64.8103C2.03987 64.6564 2.02201 64.5049 1.99343 64.3604C1.80766 66.3081 1.74335 68.2747 1.71477 70.1893C1.64094 75.2024 1.96604 80.2202 1.83981 85.2297C1.7243 89.5537 1.24915 93.8872 1.98866 98.1662C1.99819 98.1615 1.99819 98.152 2.00295 98.1425C2.18039 97.7352 2.30066 97.3054 2.36616 96.8614L2.43165 96.5098L2.46381 96.3156L2.51501 96.1404C2.58051 95.9036 2.64005 95.6632 2.70078 95.4276C2.83535 94.9836 3.01278 94.5218 3.12948 94.1287C3.19379 93.9251 3.25928 93.7309 3.31525 93.5273L3.44029 92.8796H3.43553C3.53701 92.0989 3.529 91.3079 3.41171 90.5294C3.27557 89.7449 3.3677 88.9381 3.67727 88.204L3.68679 88.1755L3.69156 88.1803C3.72545 88.1124 3.76963 88.0501 3.82255 87.9956C3.8712 87.9433 3.92939 87.9007 3.99403 87.8701C4.00356 87.8701 4.02261 87.8428 4.04524 87.7967H4.05C4.08215 87.7221 4.10597 87.6534 4.12859 87.5741L4.17146 87.3432C4.2096 87.0333 4.21757 86.7204 4.19528 86.409C4.1667 85.8075 4.10001 85.2724 4.04524 84.8366H4.05C3.94313 84.382 3.91933 83.912 3.97974 83.449C4.19409 83.861 4.33818 84.305 4.4132 84.7632C4.543 85.2901 4.65018 85.8217 4.72401 86.3581C4.77164 86.7097 4.78474 87.0614 4.76688 87.4119C4.76688 87.6996 4.6728 87.9814 4.50132 88.2134C4.31555 88.4159 4.12859 88.3792 4.02261 88.6752C3.9202 89.2672 3.94759 89.8734 4.10597 90.4512C4.27389 91.2978 4.31443 92.1645 4.22624 93.0229C4.19052 93.236 4.16194 93.4527 4.12383 93.6705C4.06905 93.8967 4.00356 94.124 3.93806 94.3549C3.80707 94.8261 3.66417 95.2287 3.52841 95.6727C3.4784 95.8953 3.41767 96.1084 3.3617 96.3298L3.32002 96.492L3.29144 96.653L3.22713 97.0094H3.2307C3.15673 97.5337 3.01131 98.0456 2.79843 98.5309C2.76152 98.6055 2.71984 98.6658 2.67816 98.7393C4.22267 98.8221 5.76599 98.9524 7.30574 99.1099C7.36647 98.2728 7.27359 97.4215 7.29741 96.6448C7.32956 95.5709 7.35218 94.6284 7.376 93.8505C7.39982 93.0738 7.39982 92.4628 7.38553 92.0472C7.376 91.6305 7.40934 91.3901 7.4546 91.3854C7.50223 91.3807 7.56177 91.608 7.64156 92.02V92.0236C7.75707 92.625 7.83209 93.2313 7.86424 93.8422C7.91188 94.6236 7.94284 95.5709 7.97142 96.64C7.98095 97.3895 8.12504 98.2443 8.08336 99.1927C9.07889 99.304 10.0744 99.4236 11.0688 99.5444C11.0534 99.2995 11.0427 99.0544 11.0366 98.8091C11.0366 98.4764 11.0271 98.2124 10.9997 97.8844C10.9711 97.5552 10.958 97.245 10.9342 96.9313C10.9342 96.6116 10.9342 96.2919 10.9295 95.9781C10.939 95.6644 10.9676 95.3447 10.9902 95.0309C11.0128 94.7172 11.0688 94.4342 11.1069 94.1335C11.1307 93.9855 11.1533 93.8458 11.1712 93.6978L11.2141 93.2952L11.2093 93.2916C11.2419 92.7504 11.228 92.2073 11.1676 91.6684C11.12 91.1273 11.0557 90.5909 11.0414 90.0344H11.0366C11.0267 89.7679 11.033 89.501 11.0557 89.2352L11.0688 89.0411L11.0735 88.9298L11.0878 88.8327L11.0926 88.8279C11.111 88.6893 11.1389 88.552 11.176 88.4171C11.2557 88.0927 11.4463 87.8109 11.7118 87.6167C11.9485 87.4939 12.2021 87.4066 12.4644 87.3574C12.6251 87.3209 12.7751 87.2479 12.9027 87.1443L13.0134 87.0247L13.0372 87.0057L13.0694 86.9501C13.1067 86.8848 13.1347 86.8147 13.1527 86.7417C13.2586 86.0418 13.2336 85.3286 13.0789 84.6377C12.967 83.9901 12.8467 83.436 12.749 82.973C12.5946 82.5064 12.5268 82.0157 12.549 81.525C12.786 81.9512 12.967 82.4082 13.0837 82.8807C13.2325 83.3247 13.4052 83.8752 13.5624 84.5312C13.791 85.2949 13.8601 86.0988 13.7624 86.8897C13.7386 87.02 13.6934 87.1502 13.6279 87.265L13.5767 87.3574L13.5624 87.3846C13.5545 87.3966 13.5453 87.4077 13.535 87.4178L13.5017 87.4545L13.3945 87.58C13.1932 87.783 12.9438 87.9324 12.6693 88.0145C12.474 88.056 12.2834 88.1211 12.1072 88.2087C11.9887 88.313 11.911 88.4556 11.8881 88.6113C11.8643 88.7131 11.8464 88.8185 11.8369 88.925L11.8273 89.0079V89.0872L11.8178 89.2719H11.8131C11.8007 89.5185 11.8023 89.7656 11.8178 90.0119C11.8464 90.5021 11.9202 91.0302 11.981 91.589H11.9857C12.0607 92.1716 12.0834 92.7588 12.056 93.3473L12.0131 93.8091C11.9982 93.9545 11.9784 94.0994 11.9536 94.2436C11.9202 94.5313 11.8607 94.8403 11.8464 95.1186C11.8321 95.3956 11.8095 95.6916 11.8047 95.9829C11.8 96.2742 11.8047 96.5796 11.8131 96.8851C11.8369 97.1906 11.8559 97.4913 11.8785 97.8003C11.9024 98.1105 11.9155 98.4717 11.9202 98.7772C11.925 99.0814 11.9345 99.3691 11.9583 99.6415C14.2566 99.928 16.549 100.233 18.8473 100.483C18.8356 100.336 18.8197 100.19 18.7997 100.044C18.7259 99.5633 18.652 99.0968 18.577 98.6469L18.5818 98.6422C18.5268 98.2139 18.4461 97.7892 18.34 97.3705C17.61 94.1654 16.8324 92.2177 16.9825 92.1633C17.2742 92.5611 17.5029 93.0004 17.6517 93.4669C17.8518 93.8931 18.0471 94.4295 18.2745 95.0582C18.521 95.6822 18.727 96.4174 18.9593 97.2368V97.2415C19.0843 97.6618 19.1819 98.0928 19.257 98.5273C19.3498 98.9713 19.4332 99.4426 19.5309 99.9244C19.5678 100.138 19.5963 100.35 19.6094 100.566C20.5966 100.673 21.5731 100.765 22.5591 100.844L22.4424 100.617H22.4472C21.9037 99.5119 21.4843 98.3505 21.1968 97.1539C20.9075 96.0527 20.6514 95.0534 20.3728 94.1429C20.0941 93.2324 19.8476 92.3942 19.6285 91.6589C19.4094 90.9236 19.2796 90.276 19.1498 89.7574C18.9857 89.2261 18.89 88.6763 18.8652 88.1211C19.145 88.6065 19.3498 89.1334 19.4796 89.6745C19.6607 90.1836 19.8333 90.8076 20.0989 91.5251C20.3644 92.2426 20.6467 93.0596 20.9682 93.9665C21.2897 94.8735 21.5874 95.9 21.909 96.9739H21.903C22.2102 98.1058 22.6342 99.2022 23.1593 100.248L23.3915 100.668C23.4427 100.76 23.5082 100.849 23.5773 100.927C25.3219 101.047 27.0712 101.112 28.8206 101.093C29.2576 100.969 29.6946 100.825 30.1233 100.668L30.0757 100.612C30.009 100.536 29.947 100.456 29.8899 100.372C29.8304 100.284 29.797 100.23 29.728 100.132C29.6339 99.9659 29.5279 99.7895 29.4481 99.6178H29.4434C29.1582 98.9598 28.9097 98.2866 28.6991 97.6014C28.6014 97.2953 28.4771 96.9981 28.3275 96.7134C28.1966 96.4458 27.9965 96.1451 27.8393 95.8633C27.494 95.295 27.1605 94.7385 26.8438 94.1749C26.5264 93.6296 26.239 93.0675 25.9828 92.4912C25.7302 91.9445 25.5277 91.3763 25.3779 90.7934L25.3266 90.5945V90.5897C25.3073 90.508 25.2949 90.4249 25.2897 90.3411C25.2565 90.1891 25.244 90.0334 25.2528 89.8782C25.2576 89.5502 25.304 89.3596 25.2993 89.092V88.8931L25.2195 88.8007L25.1456 88.7498V88.7308C25.1456 88.7261 25.2147 88.6716 25.2242 88.7403C25.2004 88.6148 25.2195 88.4952 25.1968 88.3697C25.1492 88.1341 25.1456 87.8938 25.0801 87.6676H25.0849C24.709 86.2155 24.2429 84.788 23.6892 83.3933C23.4516 82.8847 23.2903 82.3442 23.2105 81.789C23.5452 82.2425 23.8155 82.7362 24.0155 83.2595C24.709 84.6238 25.2758 86.0482 25.7089 87.5149C25.778 87.7552 25.8339 88.0003 25.8804 88.2489C25.909 88.3745 25.9364 88.5094 25.9637 88.6338C25.9637 88.777 25.978 88.9156 25.9923 89.06C26.0019 89.3181 25.959 89.6555 25.9685 89.8734V89.8687C25.9637 89.9847 25.9733 90.1055 26.0019 90.2203L26.0292 90.3825L26.0947 90.5862H26.09C26.2436 91.1273 26.4472 91.6542 26.6949 92.1585C26.9367 92.6854 27.2391 93.217 27.5547 93.7534C27.8715 94.2945 28.2204 94.8403 28.5645 95.4098C28.7372 95.7106 28.9182 95.9604 29.0897 96.3073C29.2624 96.6211 29.4064 96.9538 29.5231 97.296C29.728 97.9483 29.9697 98.5913 30.2388 99.22C30.3091 99.368 30.3972 99.5029 30.4722 99.6462C30.508 99.6971 30.5699 99.7989 30.6116 99.8499H30.6163C30.6628 99.9138 30.7092 99.9742 30.7592 100.035L30.9319 100.238H30.9367C30.9736 100.284 31.0117 100.335 31.0486 100.386C31.0724 100.428 31.0998 100.469 31.1189 100.511L31.151 100.603C31.1932 100.742 31.1782 100.892 31.1093 101.02ZM32.6157 92.0709C32.0109 91.151 31.2378 90.3522 30.3365 89.7159C30.6663 90.7342 31.02 91.7418 31.3963 92.7458H31.3928C31.8402 92.6009 32.2554 92.3717 32.6157 92.0709Z" fill="#002D5A"/>
</svg>
