<svg width="104" height="105" viewBox="0 0 104 105" fill="none" xmlns="http://www.w3.org/2000/svg">
<g clip-path="url(#clip0_104_233)">
<path d="M40.2335 42.5542L55.7093 57.3133L63.1365 49.5981C63.9599 48.7422 65.3157 48.7227 66.1626 49.5541C67.0103 50.3863 67.0296 51.7544 66.2062 52.6104L57.2982 61.8436C56.4706 62.6843 55.1333 62.7131 54.2713 61.9079L37.2494 45.6969C36.836 45.3032 36.5945 44.7597 36.5786 44.1865C36.5626 43.6133 36.7731 43.0571 37.1638 42.6406C37.9922 41.7711 39.3581 41.733 40.2335 42.5542Z" fill="#002D5A"/>
<path d="M51.7173 19.8403C69.4042 19.8403 83.7858 34.3615 83.7858 52.2201C83.7858 70.0795 69.4042 84.6007 51.7173 84.6007C34.0296 84.6007 19.6481 70.0795 19.6481 52.2201C19.6481 34.3615 34.0296 19.8403 51.7173 19.8403ZM51.7173 80.2661C67.043 80.2661 79.4928 67.6734 79.4928 52.2201C79.4928 36.7668 67.043 24.175 51.7173 24.175C36.3765 24.175 23.9411 36.7312 23.9411 52.2201C23.9411 67.709 36.3765 80.2661 51.7173 80.2661Z" fill="#002D5A"/>
<path d="M7.58485 40.2997L6.87634 27.4472C6.82687 26.5844 7.29139 25.7742 8.05692 25.3882L19.3906 19.6015L25.1216 8.15779C25.5115 7.3916 26.3089 6.92511 27.1608 6.96575L39.9115 7.65998L50.5367 0.572084C51.2528 0.095438 52.181 0.095438 52.8979 0.572084L63.5231 7.65998L76.2512 6.94458C77.1064 6.89379 77.908 7.36281 78.2904 8.13662L84.0222 19.5804L95.3551 25.367C96.1147 25.7598 96.5759 26.565 96.5357 27.426L95.828 40.2785L102.847 51.0069C103.319 51.7299 103.319 52.6671 102.847 53.3909L95.8489 64.1405L96.5575 76.993C96.6069 77.8557 96.1432 78.6659 95.3769 79.052L84.0432 84.8386L78.3122 96.2823C77.9231 97.0494 77.1257 97.515 76.273 97.4744L63.5441 96.759L52.9189 103.846C52.207 104.338 51.2696 104.338 50.5577 103.846L39.9325 96.759L27.2036 97.4744C26.3492 97.5243 25.5476 97.0553 25.1644 96.2823L19.4334 84.8386L8.09968 79.052C7.34086 78.6583 6.87885 77.854 6.91911 76.993L7.62762 64.1405L0.608719 53.4121C0.13665 52.6891 0.13665 51.751 0.608719 51.028L7.58485 40.2997ZM11.5777 62.3634C11.8393 62.7512 11.9609 63.2176 11.9206 63.6858L11.2557 75.8441L21.9664 81.3057C22.3748 81.5122 22.706 81.8475 22.9106 82.2598L28.3204 93.0745L40.3618 92.4031C40.823 92.3862 41.2783 92.5064 41.6715 92.7494L51.7173 99.447L61.7623 92.7494C62.1111 92.5115 62.5219 92.3828 62.9429 92.3811H63.0502L75.0924 93.0533L80.5014 82.2378C80.706 81.8255 81.0372 81.4911 81.4464 81.2845L92.1789 75.8441L91.5132 63.6858C91.4964 63.2202 91.6163 62.7605 91.8569 62.3634L98.4893 52.2201L91.8569 42.0767C91.5945 41.6898 91.4729 41.2225 91.5132 40.7552L92.1789 28.596L81.4674 23.1345C81.059 22.9279 80.7278 22.5935 80.5232 22.1812L75.1142 11.3656L63.072 12.0378C62.6117 12.0539 62.1564 11.9337 61.7623 11.6907L51.7173 4.99397L41.6715 11.6907C41.2875 11.9557 40.8246 12.0785 40.3618 12.0378L28.3204 11.3656L22.9106 22.1812C22.706 22.5935 22.3748 22.9279 21.9664 23.1345L11.2557 28.596L11.9206 40.7552C11.9374 41.2199 11.8175 41.6797 11.5777 42.0767L4.94449 52.2201L11.5777 62.3634Z" fill="#002D5A"/>
</g>
<defs>
<clipPath id="clip0_104_233">
<rect width="103" height="104" fill="white" transform="matrix(-1 0 0 1 103.383 0.214844)"/>
</clipPath>
</defs>
</svg>
