<svg width="102" height="102" viewBox="0 0 102 102" fill="none" xmlns="http://www.w3.org/2000/svg">
<path d="M91.9594 102H10.0406C9.24377 102 8.4469 101.362 8.4469 100.406V72.8344C8.4469 64.7062 12.4313 56.8969 19.125 51.9562L21.0375 50.5219C24.8625 47.6531 29.325 45.7406 33.9469 44.7844L34.5844 47.8125C30.2813 48.7687 26.4563 50.5219 22.7906 53.0719L20.8781 54.5062C14.9813 58.8094 11.475 65.6625 11.475 72.8344V98.8125H90.3657V72.8344C90.3657 65.6625 86.8594 58.8094 81.1219 54.5062L79.2094 53.0719C75.7032 50.5219 71.7188 48.7687 67.4156 47.8125L68.0532 44.7844C72.675 45.7406 77.1375 47.6531 80.9625 50.5219L82.875 51.9562C89.5688 56.7375 93.3938 64.5469 93.3938 72.8344V100.406C93.5531 101.362 92.9156 102 91.9594 102Z" fill="#002D5A"/>
<path d="M51.0001 56.8969C39.0469 56.8969 29.3251 47.175 29.3251 35.2219C29.3251 23.2688 39.0469 13.5469 51.0001 13.5469C62.9532 13.5469 72.6751 23.2688 72.6751 35.2219C72.6751 47.175 62.9532 56.8969 51.0001 56.8969ZM51.0001 16.575C40.8001 16.575 32.3532 24.8625 32.3532 35.2219C32.3532 45.5812 40.8001 53.7094 51.0001 53.7094C61.2001 53.7094 69.6469 45.4219 69.6469 35.0625C69.6469 24.7031 61.2001 16.575 51.0001 16.575Z" fill="#002D5A"/>
<path d="M81.1219 27.4125C77.9344 13.3875 65.1844 3.1875 50.8407 3.1875C36.4969 3.1875 24.0657 12.9094 20.7188 26.9344L17.6907 26.1375C21.3563 10.6781 35.0625 0 50.8407 0C66.7782 0 80.8032 11.1563 84.15 26.6156L81.1219 27.4125Z" fill="#002D5A"/>
<path d="M80.325 47.8125C79.6875 47.8125 79.05 47.8125 78.4125 47.6531L74.9063 46.6968C74.1094 46.5375 73.6313 45.7406 73.7907 44.7843L78.4125 25.8187C78.5719 25.3406 78.7313 25.0219 79.05 24.8625C79.3688 24.7031 79.8469 24.5437 80.1657 24.7031L83.8313 25.6594C85.9032 26.1375 87.6563 27.4125 88.7719 29.1656C89.8875 30.9187 90.2063 33.15 89.7282 35.2219L88.1344 41.7562C87.1782 45.4219 83.9907 47.8125 80.325 47.8125ZM79.2094 44.625C81.7594 45.2625 84.4688 43.6687 85.1063 41.1187L86.7 34.5844C87.0188 33.3094 86.8594 32.0343 86.0625 30.9187C85.425 29.8031 84.3094 29.0062 83.0344 28.6875L80.8032 28.2094L76.9782 44.1469L79.2094 44.625Z" fill="#002D5A"/>
<path d="M21.675 47.3344C18.1687 47.3344 14.8219 44.9437 14.025 41.2781L12.4312 34.7437C11.475 30.4406 14.025 26.1375 18.3281 25.1812L21.9937 24.225C22.7906 24.0656 23.5875 24.5437 23.9062 25.3406L28.5281 44.3062C28.6875 44.7844 28.5281 45.1031 28.3687 45.4219C28.2094 45.7406 27.7312 46.0594 27.4125 46.0594L23.7469 47.0156C22.95 47.175 22.3125 47.3344 21.675 47.3344ZM21.1969 27.5719L18.9656 28.05C16.4156 28.6875 14.8219 31.2375 15.4594 33.9469L17.0531 40.4812C17.6906 43.0312 20.2406 44.625 22.95 43.9875L25.1812 43.5094L21.1969 27.5719Z" fill="#002D5A"/>
<path d="M56.5781 43.35H74.9062V46.3781H56.5781V43.35Z" fill="#002D5A"/>
<path d="M54.5063 49.2469C56.8828 49.2469 58.8094 47.3203 58.8094 44.9438C58.8094 42.5672 56.8828 40.6406 54.5063 40.6406C52.1297 40.6406 50.2031 42.5672 50.2031 44.9438C50.2031 47.3203 52.1297 49.2469 54.5063 49.2469Z" fill="#002D5A"/>
</svg>
