<svg width="103" height="103" viewBox="0 0 103 103" fill="none" xmlns="http://www.w3.org/2000/svg">
<g clip-path="url(#clip0_104_74)">
<path d="M4.58911 0.162537H14.5793C17.7143 0.162537 20.3958 2.41606 20.9355 5.50424L22.3749 13.7414H31.2049C32.0496 13.7414 32.7346 14.4264 32.7346 15.2711C32.7346 16.1158 32.0496 16.8008 31.2049 16.8008H22.9094L23.7109 21.3873H97.5796C98.773 21.3873 99.8179 20.5034 99.9299 19.3153C100.058 17.9517 98.9846 16.8008 97.6472 16.8008H38.3439C37.4992 16.8008 36.8142 16.1158 36.8142 15.2711C36.8142 14.4264 37.4992 13.7414 38.3439 13.7414H97.5336C100.446 13.7414 102.911 16.0207 102.998 18.9318C103.088 21.9571 100.653 24.4468 97.6472 24.4468H97.1407L89.3875 68.8129C89.2596 69.5452 88.6239 70.0793 87.8808 70.0793H32.2204L32.931 74.1458H76.0762C76.9209 74.1458 77.6059 74.8308 77.6059 75.6755C77.6059 76.5202 76.9209 77.2052 76.0762 77.2052H31.6451C30.9017 77.2052 30.266 76.6711 30.1383 75.9388L17.9218 6.03111C17.6381 4.40725 16.2279 3.22215 14.5793 3.22215H4.64243C3.86489 3.22215 3.17126 3.7796 3.07228 4.55049C2.95258 5.48332 3.67942 6.28157 4.58911 6.28157H13.5744C14.3178 6.28157 14.9535 6.81568 15.0812 7.54794L27.1292 76.4914C27.5112 78.6782 29.3996 80.265 31.6195 80.265H89.2867C90.0641 80.265 90.7577 79.7076 90.8567 78.9367C90.9764 78.0038 90.2498 77.2056 89.3399 77.2056H83.2148C82.3701 77.2056 81.6851 76.5206 81.6851 75.6759C81.6851 74.8312 82.3701 74.1462 83.2148 74.1462H89.228C91.7099 74.1462 93.8274 76.0698 93.9256 78.5496C94.029 81.156 91.9452 83.3101 89.3644 83.3236C92.0339 85.631 93.727 89.0391 93.7232 92.8372C93.7224 93.6767 93.033 94.3538 92.1935 94.3538H91.0601C90.3216 99.1516 86.165 102.837 81.1638 102.837C76.1625 102.837 72.0063 99.152 71.2674 94.3538H70.134C69.2945 94.3538 68.6051 93.6767 68.6043 92.8372C68.6005 89.0393 70.2933 85.6314 72.9625 83.3242H42.2927C44.9618 85.6317 46.6547 89.0393 46.6509 92.8372C46.6501 93.6767 45.9606 94.3538 45.1211 94.3538H43.9878C43.2492 99.1516 39.0926 102.837 34.0913 102.837C29.0902 102.837 24.9338 99.152 24.1951 94.3538H23.0617C22.22 94.3538 21.5324 93.6729 21.532 92.831C21.5296 88.3121 23.9269 84.3439 27.516 82.1293C25.7668 81.0119 24.495 79.1926 24.115 77.0179L12.2881 9.34079H4.70117C2.21609 9.34079 0.096756 7.41215 0.00280762 4.92889C-0.0955658 2.31829 1.99963 0.162537 4.58911 0.162537ZM86.5949 67.0201L94.0346 24.447H88.0324L82.4499 67.0201H86.5949ZM79.3642 67.0201L84.9467 24.447H78.9145L75.1917 67.0201H79.3642ZM72.1208 67.0201L75.8437 24.447H67.6737L66.2444 67.0201H72.1208ZM55.0991 67.0199H63.1831L64.6125 24.447H53.6695L55.0991 67.0199ZM52.0378 67.0201L50.6085 24.447H42.4375L46.1604 67.0201H52.0378ZM43.0895 67.0201L39.3666 24.447H33.3341L38.9166 67.0201H43.0895ZM31.6857 67.0201H35.8308L30.2483 24.447H24.246L31.6857 67.0201ZM81.1638 99.7778C84.4725 99.7778 87.2467 97.4543 87.9457 94.3536H74.3817C75.0808 97.4545 77.8552 99.7778 81.1638 99.7778ZM71.787 91.2946H90.5406C89.8072 86.7807 85.8815 83.3244 81.1638 83.3244C76.4462 83.3244 72.5205 86.7807 71.787 91.2946ZM34.0915 99.7778C37.4002 99.7778 40.1745 97.4543 40.8736 94.3536H27.3096C28.0087 97.4545 30.7831 99.7778 34.0915 99.7778ZM24.7149 91.2946H43.4687C42.7351 86.7807 38.8096 83.3244 34.0919 83.3244C29.3738 83.3244 25.4484 86.7807 24.7149 91.2946Z" fill="#002D5A"/>
</g>
<defs>
<clipPath id="clip0_104_74">
<rect width="103" height="103" fill="white" transform="matrix(-1 0 0 1 103 0)"/>
</clipPath>
</defs>
</svg>
