<svg width="102" height="102" viewBox="0 0 102 102" fill="none" xmlns="http://www.w3.org/2000/svg">
<g clip-path="url(#clip0_104_140)">
<path d="M99.9903 79.121L22.7886 1.91932C20.2317 -0.637251 16.0708 -0.637251 13.5138 1.91932L1.91788 13.5156C-0.639293 16.0728 -0.639293 20.2335 1.91788 22.7907L10.699 31.5718C11.2907 32.1635 12.25 32.1635 12.8414 31.5718C13.4331 30.9802 13.4331 30.0209 12.8414 29.4294L4.06028 20.6483C2.68447 19.2725 2.68447 17.0338 4.06028 15.6584L15.6566 4.06212C17.0326 2.68592 19.271 2.68592 20.6466 4.06212L20.9074 4.3229L12.4701 12.7598C11.8784 13.3517 11.8784 14.3107 12.4701 14.9022C12.7657 15.1979 13.1536 15.3459 13.5413 15.3459C13.929 15.3459 14.3167 15.1981 14.6125 14.9022L23.0496 6.4649L25.8773 9.29261L22.0959 13.074C21.4921 13.6778 21.4586 14.6994 22.077 15.2883C22.3693 15.5666 22.7454 15.7059 23.1215 15.7059C23.5092 15.7059 23.8969 15.558 24.1927 15.2622L28.0199 11.4352L30.8476 14.2631L27.0206 18.0901C26.429 18.682 26.429 19.641 27.0206 20.2325C27.3163 20.5281 27.7042 20.6762 28.0918 20.6762C28.4795 20.6762 28.8672 20.5283 29.163 20.2325L32.9902 16.4055L35.8179 19.2332L31.9909 23.0604C31.3993 23.6521 31.3993 24.6113 31.9909 25.2026C32.2866 25.4983 32.6745 25.6463 33.0621 25.6463C33.4498 25.6463 33.8375 25.4985 34.1333 25.2024L37.9603 21.3754L40.7882 24.2033L32.3511 32.6404C31.7595 33.2323 31.7595 34.1914 32.3511 34.7828C32.6468 35.0785 33.0347 35.2265 33.4223 35.2265C33.81 35.2265 34.1977 35.0787 34.4935 34.7828L42.9308 26.3457L45.7586 29.1736L41.9772 32.955C41.3734 33.5588 41.3399 34.5804 41.9585 35.1693C42.2507 35.4476 42.6268 35.5869 43.003 35.5869C43.3906 35.5869 43.7783 35.4391 44.0742 35.1432L47.9012 31.316L50.7289 34.1437L46.9475 37.9251C46.3437 38.529 46.3102 39.5505 46.9286 40.1394C47.2208 40.4177 47.5969 40.557 47.9731 40.557C48.3607 40.557 48.7484 40.4092 49.0443 40.1133L52.8713 36.2864L55.6992 39.1141L51.8722 42.9411C51.2805 43.5329 51.2805 44.492 51.8722 45.0835C52.168 45.3791 52.5559 45.5271 52.9436 45.5271C53.3313 45.5271 53.7189 45.3793 54.015 45.0835L57.842 41.2565L60.6697 44.0844L52.2326 52.5215C51.6409 53.1134 51.6409 54.0724 52.2326 54.6639C52.5284 54.9595 52.9163 55.1075 53.304 55.1075C53.6916 55.1075 54.0793 54.9597 54.3754 54.6639L62.8125 46.2268L65.6402 49.0545L61.8132 52.8815C61.2215 53.4734 61.2215 54.4324 61.8132 55.0239C62.109 55.3195 62.4969 55.4675 62.8846 55.4675C63.2723 55.4675 63.66 55.3197 63.956 55.0239L67.783 51.1969L70.6105 54.0246L66.7835 57.8516C66.1918 58.4435 66.1918 59.4025 66.7835 59.994C67.0793 60.2896 67.4672 60.4376 67.8549 60.4376C68.2426 60.4376 68.6303 60.2898 68.9263 59.994L72.7533 56.167L75.581 58.9949L71.754 62.8219C71.1623 63.4138 71.1623 64.3728 71.754 64.9643C72.0499 65.2599 72.4377 65.408 72.8254 65.408C73.2131 65.408 73.6008 65.2601 73.8968 64.9643L77.7238 61.1373L80.5517 63.965L72.1146 72.4021C71.5229 72.994 71.5229 73.953 72.1146 74.5445C72.4104 74.8402 72.7983 74.9882 73.186 74.9882C73.5737 74.9882 73.9614 74.8404 74.2574 74.5445L82.6945 66.1074L85.5224 68.9351L81.6954 72.7621C81.1037 73.354 81.1037 74.313 81.6954 74.9045C81.9913 75.2001 82.3791 75.3482 82.7668 75.3482C83.1545 75.3482 83.5422 75.2003 83.8382 74.9045L87.6652 71.0775L90.4929 73.9052L86.6659 77.7322C86.0742 78.3241 86.0742 79.2831 86.6659 79.8746C86.9618 80.1703 87.3497 80.3183 87.7373 80.3183C88.125 80.3183 88.5127 80.1705 88.8087 79.8746L92.6357 76.0476L95.4634 78.8753L91.6364 82.7023C91.0448 83.2942 91.0448 84.2532 91.6364 84.8447C91.9323 85.1404 92.3202 85.2884 92.7078 85.2884C93.0955 85.2884 93.4832 85.1406 93.7792 84.8447L97.6062 81.0177L97.8823 81.2939C98.5079 81.9194 98.9133 82.7446 98.9661 83.6275C99.0273 84.6505 98.6567 85.6229 97.9389 86.3405L86.3426 97.9366C84.9668 99.3128 82.7284 99.3128 81.353 97.9366L17.8404 34.4282C17.2488 33.8366 16.2895 33.8366 15.698 34.4282C15.1064 35.0199 15.1064 35.9792 15.698 36.5706L79.2082 100.081C80.4868 101.359 82.1662 101.998 83.8456 101.998C85.5248 101.998 87.2044 101.359 88.483 100.081L100.079 88.4847C101.344 87.2196 102.029 85.5286 101.999 83.7355C101.97 81.9979 101.219 80.35 99.9903 79.121Z" fill="#002D5A"/>
</g>
<defs>
<clipPath id="clip0_104_140">
<rect width="102" height="102" fill="white"/>
</clipPath>
</defs>
</svg>
