<svg width="103" height="103" viewBox="0 0 103 103" fill="none" xmlns="http://www.w3.org/2000/svg">
<path d="M99.7812 59.5469V43.4531C99.7811 43.0724 99.6461 42.7041 99.4 42.4135C99.154 42.123 98.8129 41.9291 98.4374 41.8663L88.4287 40.1974C87.7105 37.8372 86.7634 35.5529 85.601 33.3768L91.4994 25.124C91.7206 24.8139 91.8247 24.4355 91.7932 24.056C91.7616 23.6764 91.5965 23.3204 91.3272 23.0511L79.9489 11.6728C79.6796 11.4035 79.3236 11.2384 78.944 11.2068C78.5645 11.1753 78.1861 11.2794 77.876 11.5006L69.6232 17.399C67.4472 16.2366 65.1628 15.2895 62.8026 14.5713L61.1337 4.56258C61.0709 4.18708 60.877 3.84601 60.5865 3.59998C60.2959 3.35394 59.9276 3.21886 59.5469 3.21875H43.4531C43.0724 3.21886 42.7041 3.35394 42.4135 3.59998C42.123 3.84601 41.9291 4.18708 41.8663 4.56258L40.1974 14.5713C37.8372 15.2895 35.5529 16.2366 33.3768 17.399L25.124 11.5006C24.8139 11.2794 24.4355 11.1753 24.056 11.2068C23.6764 11.2384 23.3204 11.4035 23.0511 11.6728L11.6728 23.0511C11.4035 23.3204 11.2384 23.6764 11.2068 24.056C11.1753 24.4355 11.2794 24.8139 11.5006 25.124L17.399 33.3768C16.2366 35.5529 15.2895 37.8372 14.5713 40.1974L4.56258 41.8663C4.18708 41.9291 3.84601 42.123 3.59998 42.4135C3.35394 42.7041 3.21886 43.0724 3.21875 43.4531V59.5469C3.21886 59.9276 3.35394 60.2959 3.59998 60.5865C3.84601 60.877 4.18708 61.0709 4.56258 61.1337L14.5713 62.8026C15.2895 65.1628 16.2366 67.4472 17.399 69.6232L11.5006 77.876C11.2794 78.1861 11.1753 78.5645 11.2068 78.944C11.2384 79.3236 11.4035 79.6796 11.6728 79.9489L23.0511 91.3272C23.3204 91.5965 23.6764 91.7616 24.056 91.7932C24.4355 91.8247 24.8139 91.7206 25.124 91.4994L33.3768 85.601C35.5529 86.7634 37.8372 87.7105 40.1974 88.4287L41.8663 98.4374C41.9291 98.8129 42.123 99.154 42.4135 99.4C42.7041 99.6461 43.0724 99.7811 43.4531 99.7812H59.5469C59.9283 99.7814 60.2974 99.646 60.5884 99.3993C60.8793 99.1526 61.0732 98.8106 61.1353 98.4342L61.6568 95.2814C66.2994 98.5996 71.9688 100.163 77.6559 99.6925C83.343 99.2223 88.6787 96.7494 92.7135 92.714C96.7482 88.6785 99.22 83.3422 99.6891 77.6551C100.158 71.9679 98.594 66.2988 95.275 61.6568L98.4278 61.1353C98.8053 61.0745 99.1488 60.8813 99.3969 60.5902C99.6449 60.2991 99.7811 59.9293 99.7812 59.5469ZM75.6406 96.5625C71.5027 96.5625 67.4576 95.3355 64.0171 93.0365C60.5765 90.7376 57.8949 87.4701 56.3113 83.6471C54.7278 79.8241 54.3135 75.6174 55.1208 71.559C55.928 67.5005 57.9207 63.7726 60.8466 60.8466C63.7726 57.9207 67.5005 55.928 71.559 55.1208C75.6174 54.3135 79.8241 54.7278 83.6471 56.3113C87.4701 57.8949 90.7376 60.5765 93.0365 64.0171C95.3355 67.4576 96.5625 71.5027 96.5625 75.6406C96.5561 81.1875 94.3498 86.5053 90.4276 90.4276C86.5053 94.3498 81.1875 96.5561 75.6406 96.5625ZM51.5 75.6406C51.5083 76.7144 51.5878 77.7865 51.7382 78.8497C51.6609 78.8594 51.5805 78.8594 51.5 78.8594C46.0888 78.8594 40.7992 77.2548 36.2999 74.2485C31.8007 71.2422 28.294 66.9693 26.2232 61.97C24.1525 56.9707 23.6107 51.4697 24.6663 46.1624C25.722 40.8553 28.3277 35.9803 32.154 32.154C35.9803 28.3277 40.8553 25.722 46.1624 24.6663C51.4697 23.6107 56.9707 24.1525 61.97 26.2232C66.9693 28.294 71.2422 31.8007 74.2485 36.2999C77.2548 40.7992 78.8594 46.0888 78.8594 51.5C78.8594 51.5805 78.8513 51.6609 78.8497 51.7382C75.4365 51.2536 71.959 51.5107 68.6541 52.4919C65.3493 53.4731 62.2949 55.1553 59.6991 57.4239C57.1033 59.6925 55.0272 62.4941 53.6123 65.6378C52.1973 68.7815 51.4769 72.1933 51.5 75.6406ZM96.5625 58.1821L92.8931 58.7889C89.9078 55.7322 86.1637 53.5239 82.0443 52.39C82.054 52.0923 82.0781 51.7993 82.0781 51.5C82.0781 45.4522 80.2848 39.5403 76.9248 34.5117C73.5648 29.4832 68.7892 25.5639 63.2017 23.2495C57.6143 20.9351 51.4661 20.3296 45.5345 21.5094C39.6029 22.6893 34.1544 25.6016 29.878 29.878C25.6016 34.1544 22.6893 39.6029 21.5094 45.5345C20.3296 51.4661 20.9351 57.6143 23.2495 63.2017C25.5639 68.7892 29.4832 73.5648 34.5117 76.9248C39.5403 80.2848 45.4522 82.0781 51.5 82.0781C51.7993 82.0781 52.0923 82.054 52.39 82.0443C53.5239 86.1637 55.7322 89.9078 58.7889 92.8931L58.1821 96.5625H44.8243L43.2149 86.9062C43.1644 86.6031 43.0281 86.3207 42.8222 86.0926C42.6163 85.8644 42.3494 85.7 42.053 85.6188C39.2645 84.854 36.5827 83.743 34.0705 82.3115C33.8033 82.1596 33.4983 82.0874 33.1915 82.1034C32.8846 82.1194 32.5887 82.2228 32.3388 82.4016L24.3724 88.0956L14.9125 78.6373L20.6064 70.6709C20.7852 70.421 20.8887 70.1251 20.9047 69.8182C20.9206 69.5113 20.8484 69.2063 20.6966 68.9392C19.2651 66.4269 18.154 63.7452 17.3893 60.9567C17.308 60.6603 17.1436 60.3934 16.9155 60.1874C16.6873 59.9815 16.405 59.8452 16.1018 59.7947L6.44555 58.1853V44.8163L16.1018 43.2069C16.405 43.1564 16.6873 43.0201 16.9155 42.8142C17.1436 42.6083 17.308 42.3413 17.3893 42.0449C18.154 39.2564 19.2651 36.5747 20.6966 34.0624C20.8484 33.7953 20.9206 33.4903 20.9047 33.1834C20.8887 32.8765 20.7852 32.5807 20.6064 32.3307L14.9125 24.3643L24.3627 14.9141L32.3291 20.608C32.579 20.7868 32.8749 20.8903 33.1818 20.9063C33.4887 20.9222 33.7937 20.85 34.0608 20.6982C36.5731 19.2667 39.2548 18.1556 42.0433 17.3909C42.3397 17.3096 42.6067 17.1452 42.8126 16.9171C43.0185 16.6889 43.1548 16.4066 43.2053 16.1034L44.8147 6.44716H58.1821L59.7915 16.1034C59.842 16.4066 59.9783 16.6889 60.1842 16.9171C60.3901 17.1452 60.6571 17.3096 60.9535 17.3909C63.742 18.1556 66.4237 19.2667 68.936 20.6982C69.2031 20.85 69.5081 20.9222 69.815 20.9063C70.1219 20.8903 70.4177 20.7868 70.6677 20.608L78.6341 14.9141L88.0843 24.3643L82.4 32.3291C82.2212 32.579 82.1177 32.8749 82.1018 33.1818C82.0858 33.4887 82.158 33.7937 82.3099 34.0608C83.7414 36.5731 84.8524 39.2548 85.6171 42.0433C85.6984 42.3397 85.8628 42.6067 86.091 42.8126C86.3191 43.0185 86.6015 43.1548 86.9046 43.2053L96.5609 44.8147L96.5625 58.1821Z" fill="#002D5A"/>
<path d="M53.1094 46.968V32.1875H49.8906V46.968C49.2175 47.2084 48.6062 47.5953 48.1008 48.1008C47.5953 48.6062 47.2084 49.2175 46.968 49.8906H38.625V53.1094H46.968C47.238 53.8778 47.6985 54.5652 48.3063 55.1073C48.9142 55.6494 49.6495 56.0285 50.4437 56.2092C51.2379 56.3899 52.0649 56.3663 52.8474 56.1406C53.63 55.9149 54.3426 55.4944 54.9185 54.9185C55.4944 54.3426 55.9149 53.63 56.1406 52.8474C56.3663 52.0649 56.3899 51.2379 56.2092 50.4437C56.0285 49.6495 55.6494 48.9142 55.1073 48.3063C54.5652 47.6985 53.8778 47.238 53.1094 46.968ZM51.5 53.1094C51.1817 53.1094 50.8705 53.015 50.6059 52.8381C50.3412 52.6613 50.1349 52.41 50.0131 52.1159C49.8913 51.8218 49.8595 51.4982 49.9215 51.186C49.9836 50.8738 50.1369 50.5871 50.362 50.362C50.5871 50.1369 50.8738 49.9836 51.186 49.9215C51.4982 49.8595 51.8218 49.8913 52.1159 50.0131C52.41 50.1349 52.6613 50.3412 52.8381 50.6059C53.015 50.8705 53.1094 51.1817 53.1094 51.5C53.1094 51.9268 52.9398 52.3362 52.638 52.638C52.3362 52.9398 51.9268 53.1094 51.5 53.1094Z" fill="#002D5A"/>
<path d="M68.5014 91.8406C69.6492 92.3481 70.8481 92.7312 72.0775 92.9832L72.7212 89.8305C71.7172 89.624 70.738 89.3111 69.8002 88.897L68.5014 91.8406Z" fill="#002D5A"/>
<path d="M75.6406 90.125V93.3438C80.3341 93.3382 84.8337 91.4713 88.1525 88.1525C91.4713 84.8337 93.3382 80.3341 93.3438 75.6406H90.125C90.1203 79.4807 88.5928 83.1621 85.8774 85.8774C83.1621 88.5928 79.4807 90.1203 75.6406 90.125Z" fill="#002D5A"/>
<path d="M77.25 75.6406V59.5469H74.0312V74.0312H65.9844V77.25H75.6406C76.0675 77.25 76.4768 77.0804 76.7786 76.7786C77.0804 76.4768 77.25 76.0675 77.25 75.6406Z" fill="#002D5A"/>
</svg>
