<svg width="102" height="104" viewBox="0 0 102 104" fill="none" xmlns="http://www.w3.org/2000/svg">
<g clip-path="url(#clip0_104_251)">
<path d="M93.0585 18.0032L51.621 0.128182C51.2241 -0.0428494 50.7761 -0.0428494 50.379 0.128182L8.94154 18.0032C8.35185 18.2577 7.96875 18.8472 7.96875 19.5V45.1703C7.96875 71.9097 24.9677 95.9083 50.5312 103.928C50.8368 104.024 51.1626 104.024 51.4686 103.928C76.5341 96.0645 94.0312 72.4411 94.0312 45.1701V19.5C94.0312 18.8472 93.6482 18.2577 93.0585 18.0032ZM90.8438 45.1701C90.8438 70.7259 74.8541 92.9671 51 100.672C27.1459 92.9671 11.1562 70.7261 11.1562 45.1701V20.5768L51 3.38935L90.8438 20.5768V45.1701Z" fill="#002D5A"/>
<path d="M44.4318 63.851C46.3007 65.7563 49.3249 65.7561 51.1933 63.851L72.0489 42.5865C73.9883 40.6088 73.9883 37.3909 72.0489 35.4133C70.1094 33.4361 66.9533 33.4361 65.0137 35.4133L47.8126 52.9519L40.1739 45.1633C38.2344 43.1861 35.0785 43.1861 33.1389 45.1633C31.1948 47.1454 31.1946 50.3544 33.1389 52.3365L44.4318 63.851ZM35.3925 47.4617C36.0892 46.7513 37.2231 46.7511 37.92 47.4617L46.6856 56.3992C47.308 57.0335 48.317 57.0335 48.9394 56.3992L67.2677 37.7117C67.605 37.3676 68.0538 37.1781 68.5313 37.1781C70.1195 37.1781 70.9134 39.1484 69.795 40.2885L48.9394 61.5529C48.318 62.1864 47.307 62.1864 46.6856 61.5529L35.3925 50.0383C34.6942 49.3261 34.694 48.1738 35.3925 47.4617Z" fill="#002D5A"/>
<path d="M50.346 9.8932L18.471 24.5182C17.899 24.7804 17.5312 25.3604 17.5312 26V46.8169C17.5312 68.1019 30.7697 87.1272 50.4735 94.1586C50.8356 94.288 51.2327 94.2799 51.5919 94.1336L53.5452 93.3367C72.2317 85.7157 84.4688 67.286 84.4688 46.7667V26C84.4688 25.3606 84.1008 24.7804 83.529 24.5182L51.654 9.8932C51.2379 9.70227 50.7615 9.70227 50.346 9.8932ZM81.2812 27.0506V46.7665C81.2812 66.0589 69.9298 83.1543 52.3615 90.3191L50.9679 90.8877C32.8496 84.1543 20.7188 66.5212 20.7188 46.8169V27.0506L51 13.1568L81.2812 27.0506Z" fill="#002D5A"/>
</g>
<defs>
<clipPath id="clip0_104_251">
<rect width="102" height="104" fill="white"/>
</clipPath>
</defs>
</svg>
