<?xml version="1.0" encoding="UTF-8"?>
<svg xmlns="http://www.w3.org/2000/svg" width="24" height="24" viewBox="0 0 24 24" fill="none">
  <path d="M12 24C18.6274 24 24 18.6274 24 12C24 5.37258 18.6274 0 12 0C5.37258 0 0 5.37258 0 12C0 18.6274 5.37258 24 12 24Z" fill="url(#paint0_linear_110_1984)"></path>
  <path d="M14.5495 5.33325H9.4562C7.1842 5.33325 5.33887 7.17859 5.33887 9.45058V14.5439C5.33887 16.8159 7.1842 18.6613 9.4562 18.6613H14.5495C16.8215 18.6613 18.6669 16.8159 18.6669 14.5439V9.45058C18.6669 7.17859 16.8215 5.33325 14.5495 5.33325ZM17.1789 14.5493C17.1789 15.9999 16.0002 17.1839 14.5442 17.1839H9.45087C8.0002 17.1839 6.8162 16.0053 6.8162 14.5493V9.45592C6.8162 8.00525 7.99487 6.82125 9.45087 6.82125H14.5442C15.9949 6.82125 17.1789 7.99992 17.1789 9.45592V14.5493Z" fill="white"></path>
  <path d="M11.9998 8.59204C10.1225 8.59204 8.5918 10.1227 8.5918 12C8.5918 13.8774 10.1225 15.408 11.9998 15.408C13.8771 15.408 15.4078 13.8774 15.4078 12C15.4078 10.1227 13.8771 8.59204 11.9998 8.59204ZM11.9998 14.0694C10.8585 14.0694 9.93046 13.1414 9.93046 12C9.93046 10.8587 10.8585 9.93071 11.9998 9.93071C13.1411 9.93071 14.0691 10.8587 14.0691 12C14.0691 13.1414 13.1411 14.0694 11.9998 14.0694Z" fill="white"></path>
  <path d="M15.6677 8.96557C15.9817 8.91444 16.1948 8.61846 16.1437 8.30448C16.0925 7.9905 15.7966 7.77742 15.4826 7.82855C15.1686 7.87969 14.9555 8.17567 15.0067 8.48965C15.0578 8.80363 15.3538 9.01671 15.6677 8.96557Z" fill="white"></path>
  <defs>
    <linearGradient id="paint0_linear_110_1984" x1="2.86288" y1="21.1371" x2="19.9162" y2="4.08379" gradientUnits="userSpaceOnUse">
      <stop stop-color="#FEE411"></stop>
      <stop offset="0.052" stop-color="#FEDB16"></stop>
      <stop offset="0.138" stop-color="#FEC125"></stop>
      <stop offset="0.248" stop-color="#FE983D"></stop>
      <stop offset="0.376" stop-color="#FE5F5E"></stop>
      <stop offset="0.5" stop-color="#FE2181"></stop>
      <stop offset="1" stop-color="#9000DC"></stop>
    </linearGradient>
  </defs>
</svg>
