<?xml version="1.0" encoding="UTF-8"?>
<svg xmlns="http://www.w3.org/2000/svg" width="24" height="24" viewBox="0 0 24 24" fill="none">
  <circle cx="12" cy="12" r="12" fill="#22D466"></circle>
  <path fill-rule="evenodd" clip-rule="evenodd" d="M15.2987 13.4293C15.1196 13.3401 14.2388 12.9088 14.0746 12.8493C13.9104 12.7898 13.791 12.7601 13.6715 12.9385C13.5521 13.1169 13.2087 13.5186 13.1042 13.6376C12.9998 13.7566 12.8952 13.7715 12.7161 13.6822C12.5369 13.593 11.9597 13.4047 11.2754 12.7973C10.7429 12.3245 10.3833 11.7407 10.2788 11.5622C10.1743 11.3837 10.2676 11.2872 10.3573 11.1983C10.438 11.1184 10.5365 10.99 10.6261 10.8859C10.7156 10.7818 10.7455 10.7074 10.8052 10.5885C10.8649 10.4694 10.8351 10.3654 10.7903 10.2761C10.7455 10.1869 10.3872 9.30927 10.2379 8.95225C10.0925 8.60462 9.94481 8.65171 9.83484 8.64619C9.73046 8.64104 9.6109 8.63993 9.49149 8.63993C9.37206 8.63993 9.17796 8.68456 9.01371 8.863C8.84955 9.0415 8.38672 9.47288 8.38672 10.3504C8.38672 11.2281 9.02864 12.0758 9.11824 12.1948C9.20784 12.3138 10.3815 14.1147 12.1787 14.887C12.6061 15.0707 12.9398 15.1804 13.2 15.2626C13.6291 15.3983 14.0197 15.3791 14.3284 15.3332C14.6726 15.2821 15.3883 14.9019 15.5376 14.4855C15.6869 14.0689 15.6869 13.7119 15.6421 13.6376C15.5973 13.5632 15.4779 13.5186 15.2987 13.4293ZM12.0299 17.8712H12.0275C10.9582 17.8708 9.90935 17.5849 8.99437 17.0445L8.77676 16.916L6.52129 17.5048L7.12329 15.3163L6.98164 15.0919C6.38509 14.1476 6.07001 13.0562 6.07047 11.9356C6.07179 8.66559 8.74517 6.00521 12.0323 6.00521C13.6241 6.00577 15.1203 6.62348 16.2455 7.74455C17.3706 8.86554 17.9899 10.3556 17.9892 11.9403C17.9879 15.2106 15.3146 17.8712 12.0299 17.8712ZM17.1018 6.89269C15.7481 5.54393 13.9479 4.80082 12.0299 4.80005C8.0779 4.80005 4.86148 8.00088 4.85988 11.9351C4.85937 13.1928 5.18951 14.4203 5.81694 15.5025L4.7998 19.2L8.60065 18.2078C9.64793 18.7763 10.827 19.0759 12.027 19.0763H12.0299C15.9815 19.0763 19.1982 15.8752 19.1998 11.9408C19.2005 10.0342 18.4554 8.24142 17.1018 6.89269Z" fill="white"></path>
</svg>
